<?xml version="1.0" encoding="UTF-8"?>
<svg xmlns="http://www.w3.org/2000/svg" width="963.84" height="517.58" viewBox="0 0 963.84 517.58">
	<defs>
		<style>
			:root {
				--yellow: #fede00;
				--white: #ffffff;
				--blue: #0095ff;
			}

			.cls-1 {
				fill: var(--yellow);
			}

			.cls-2 {
				fill: var(--blue);
				animation: fadeTrail 5s ease infinite;
			}

			@keyframes fadeTrail {
				0% {
					fill: var(--blue);
				}

				50% {
					fill: var(--white);
				}

				100% {
					fill: var(--blue);
				}
			}
		</style>
	</defs>
	<g>
		<path class="cls-1"
			d="M954.84,0H9C4.03,0,0,4.03,0,9v499.58c0,4.97,4.03,9,9,9h945.84c4.97,0,9-4.03,9-9V9c0-4.97-4.03-9-9-9ZM950.84,504.58H13V13h937.84v491.58Z" />
		<path class="cls-1"
			d="M180.43,136c.36-16.01-9.14-32.49-28.49-49.46-10.81-8.96-8.54-13.2,6.81-12.72h35.67c-3.03,7.25-4.55,15.34-4.55,24.28,0,14.46,3.27,26.67,9.81,36.64,6.54,9.98,15.48,17.46,26.83,22.44,11.35,4.99,24.04,7.48,38.08,7.48h33.34v-38.53h-16.5c-8.24,0-14.46-.21-18.64-.63-4.18-.42-8.24-1.17-12.18-2.24-3.94-1.08-7.29-3.25-10.03-6.54-2.75-3.28-4.27-8.75-4.57-16.4.42-7.88,1.94-13.38,4.57-16.49,2.63-3.1,5.64-5.29,9.05-6.54,3.4-1.25,7.29-2.15,11.65-2.69,4.36-.54,11.08-.81,20.16-.81h16.5v-38.53h-33.34c-10.15,0-19.73,1.3-28.71,3.9-8.99,2.6-16.95,6.54-23.88,11.83-4.97,3.79-9.15,8.29-12.57,13.46v-29.19h-79.74c-16.49,0-26.28,8-29.39,24.01-3.11,16.01,5.73,33.57,26.52,52.68,12.6,9.92,10.45,14.63-6.45,14.16H39.05v38.53h112.89c18.64-3.1,28.13-12.66,28.49-28.67Z" />
		<path class="cls-1"
			d="M350.22,121.94l26.87,27.99c9.05,9.42,21.55,14.75,34.61,14.75h30.62v-26.29c3.29,6.44,7.88,11.74,13.8,15.89,6.12,4.3,13.29,7.45,21.5,9.45,8.21,2,16.29,3.09,24.23,3.27,9.56-.24,18.23-1.55,26.03-3.94s14.28-5.73,19.44-10.03c5.17-4.3,9.44-9.66,12.81-16.08,3.37-6.42,5.15-15.01,5.33-25.76V35.3h-42.11v69.51c.24,8.48-1.76,13.51-6,17.1-4.24,3.58-9.53,5.44-15.86,5.55-7.88-.24-13.68-2.06-17.38-5.47-3.71-3.4-5.38-8.47-5.02-17.19V35.3h-42.11v75.98c0,5.48.42,10.44,1.27,14.87h-24.45c-6.43,0-12.5-2.96-16.47-8.02l-3.4-4.34c10.03-2.39,17.74-5.67,23.12-9.86,5.38-4.18,9.14-9.38,11.29-15.59,2.15-6.21,2.03-15.05-.36-26.52-3.11-7.65-8-13.74-14.69-18.28-6.69-4.54-15.23-7.29-25.62-8.24h-84.22v129.37h46.77v-42.74ZM350.22,72.55h23.52c2.91,0,9.42,2.01,9.42,8.42s-6.54,8.42-9.33,8.42h-23.61v-16.83Z" />
		<polygon class="cls-1"
			points="613.99 126.27 658.43 126.27 658.43 88.7 613.99 88.7 613.99 73.82 682.8 73.82 682.8 35.3 571.88 35.3 571.88 164.67 613.99 164.67 613.99 126.27" />
		<polygon class="cls-1"
			points="730.47 126.27 774.91 126.27 774.91 88.7 730.47 88.7 730.47 73.82 793.07 73.82 822.96 117.19 822.96 164.67 865.25 164.67 865.25 117.19 921.69 35.3 870.62 35.3 843.92 75.26 817.58 35.3 799.28 35.3 766.51 35.3 688.36 35.3 688.36 164.67 730.47 164.67 730.47 126.27" />
		<path class="cls-1"
			d="M197.21,337.96c-1.17-.76-2.33-1.52-3.49-2.28-10.82-6.68-13.75-18.34-14.09-27.96h-81.42v-128.37h-59.5v182.81h158.5v-24.19Z" />
		<path class="cls-1"
			d="M508.76,179.35v52.78c.7.78,1.41,1.55,2.11,2.33.02.02.03.04.05.06,4.54,5.31,7.66,11.05,9.25,17.1,1.31,5.03.5,12.29-2.02,18.09-1.29,3.23-2.58,6.47-3.87,9.71-1.82,4.57-3.66,9.18-5.51,13.81v68.94h59.5v-51.44l24.35,27.18c13.83,15.44,33.58,24.26,54.31,24.26h94.38v-182.81h-59.5v128.37h-29.36c-13.06,0-25.43-5.85-33.72-15.93l-17.29-21.03,68.11-91.4h-59.5l-41.78,59.5v-59.5h-59.5Z" />
		<polygon class="cls-1"
			points="862.76 247.71 808.32 179.35 748.82 179.35 748.82 362.15 808.32 362.15 808.32 293.79 862.76 362.15 922.26 362.15 922.26 179.35 862.76 179.35 862.76 247.71" />
		<rect class="cls-1" x="38.72" y="383.53" width="883.55" height="13" />
		<path class="cls-1"
			d="M378.85,422.39c-3.81-2.79-9.11-3.81-15.81-3.81h-23.44v2.98c6.98.46,7.72.84,7.72,9.02v36.46c0,7.72-.74,8.37-8.37,9.02v2.98h25.95v-2.98c-8.65-.65-9.49-1.02-9.49-8.93v-14.14l6.98,1.77c1.02.09,2.79.09,4.28-.09,9.21-1.12,18.23-6.98,18.23-19.07,0-6.14-2.42-10.51-6.04-13.21ZM362.3,450.76c-3.16,0-5.77-.74-6.88-1.21v-22.41c0-2.42.28-3.53,1.02-4.09.56-.74,2.6-1.12,5.21-1.12,7.63,0,14.04,4.09,14.04,14.04,0,11.53-7.25,14.79-13.39,14.79Z" />
		<path class="cls-1"
			d="M425.35,417.18c-19.72,0-31.62,15.44-31.62,32.18,0,18.04,13.67,31.06,30.5,31.06s31.44-12.18,31.44-32.37c0-18.79-14.51-30.88-30.32-30.88ZM426.28,476.7c-13.02,0-22.79-12.65-22.79-29.85s9.58-25.95,19.9-25.95c12,0,22.41,10.04,22.41,29.57,0,17.86-9.3,26.23-19.53,26.23Z" />
		<path class="cls-1"
			d="M490.64,418.58h-26.51v3.07c7.25.56,8.09.93,8.09,8.84v36.64c0,7.91-.84,8.37-8.93,8.93v2.98h22.41c11.62,0,20.74-2.33,27.81-7.72,7.16-5.39,11.53-13.76,11.53-24.83,0-8.74-3.35-15.62-7.91-20-5.86-5.67-14.6-7.91-26.51-7.91ZM490.36,475.31c-7.16,0-10.04-1.95-10.04-8.84v-38.04c0-3.35.37-4.46,1.21-5.12.84-.74,3.35-1.3,7.63-1.3,6.23,0,11.63,1.3,15.9,4,7.25,4.28,10.79,12.46,10.79,21.76,0,14.79-8.18,27.53-25.48,27.53Z" />
		<path class="cls-1"
			d="M570.43,476.61c-13.95,0-24.46-11.53-24.46-28.83,0-14.04,8.37-26.88,23.81-26.88,10.23,0,15.53,4.09,18.04,13.95l3.16-.74c-.56-5.3-1.21-9.11-1.95-14.42-2.6-.56-9.02-2.51-16.55-2.51-20.93,0-36.18,12.83-36.18,32.55,0,14.6,10.23,30.69,33.39,30.69,6.97,0,14.88-1.86,17.58-2.51,1.58-2.98,4-10.04,5.3-14.51l-3.07-1.21c-4.93,9.67-9.77,14.42-19.07,14.42Z" />
		<path class="cls-1"
			d="M648.74,466.57c-5.95-15.81-12.28-33.76-18.04-49.38l-3.26.84-19.25,48.36c-3.25,8.28-4.56,8.74-10.6,9.58v3.07h20.83v-3.07c-7.07-.65-7.81-1.58-5.86-7.35,1.21-3.72,2.51-7.44,3.81-11.16h20.18c1.86,5.21,3.63,9.95,4.84,13.49s.56,4.28-5.58,5.02v3.07h23.25v-3.07c-6.23-.56-7.44-1.39-10.32-9.39ZM618.05,453.08c2.79-7.72,5.67-15.72,8.65-23.62h.19l8.18,23.62h-17.02Z" />
		<path class="cls-1"
			d="M686.49,444.15c-7.25-3.63-11.72-6.88-11.72-13.58,0-4.74,3.07-9.95,10.23-9.95,8.09,0,10.32,6.6,11.9,12.37l3.25-.56c-.74-6.23-1.3-9.77-1.67-13.11-3.91-1.3-7.81-2.14-11.9-2.14-12.09,0-19.34,7.53-19.34,16.65,0,10.42,9.3,14.97,15.44,18.23,7.07,3.63,12.18,6.88,12.18,13.76s-4.18,10.88-11.07,10.88c-9.58,0-13.67-9.3-15.07-14.97l-3.26.74c.65,5.02,1.86,12.46,2.6,14.6.93.46,2.33,1.21,4.56,1.86,2.33.84,5.39,1.49,9.3,1.49,12.46,0,20.83-7.72,20.83-17.76s-8.93-14.88-16.28-18.51Z" />
		<path class="cls-1"
			d="M759.13,416.25c-1.4,1.77-2.05,2.33-4.65,2.33h-36.83c-2.6,0-3.72-.19-5.21-2.33h-2.14c-.19,5.21-.65,11.25-1.12,17.02h3.25c1.02-4.19,1.86-6.88,2.98-8.37,1.21-2.05,3.07-2.79,10.32-2.79h6.04v45.2c0,7.35-.84,8.18-9.49,8.65v3.07h27.25v-3.07c-8.93-.46-9.67-1.39-9.67-8.65v-45.2h6.6c6.79,0,8.18.65,9.76,2.79,1.12,1.49,2.05,3.81,2.98,8.37l3.16-.37c-.46-5.39-.93-12.28-.93-16.65h-2.33Z" />
		<path class="cls-1"
			d="M809.63,472.42c-2.05,2.33-4.93,3.07-11.62,3.07-4.56,0-7.81-.09-9.67-1.21-1.67-1.12-2.33-3.16-2.33-7.53v-17.02h8.74c8.09,0,8.74.37,10.04,7.07h3.07v-18.04h-3.07c-1.21,6.32-1.67,6.97-10.04,6.97h-8.74v-20.65c0-2.7.28-2.98,3.16-2.98h7.44c6.42,0,8.93.74,10.04,2.6,1.21,2.14,2.14,4.09,3.07,8l3.16-.37c-.37-5.3-.84-11.72-.93-13.76h-42.13v2.98c7.35.65,8.09.93,8.09,9.11v36.46c0,7.53-.74,8.28-9.3,8.93v2.98h45.66c.74-2.79,2.79-11.9,3.25-15.07l-3.16-.37c-1.3,3.91-3.16,7.07-4.74,8.83Z" />
		<path class="cls-1"
			d="M865.98,463.22c-2.79-4.18-6.7-10.32-8.28-13.3,6.88-3.07,11.72-8,11.72-16,0-5.67-2.51-9.86-6.32-12.28-3.53-2.32-8.09-3.07-14.88-3.07h-23.53v2.98c7.35.65,8.09.93,8.09,8.83v36.74c0,7.81-.74,8.28-8.56,8.83v3.07h24.92v-3.07c-7.53-.56-8.37-1.02-8.37-8.83v-14.32h3.07c4.93,0,6.51,1.12,8.09,3.63,2.7,4.46,6.04,10.32,9.3,14.79,4.37,6.14,8.28,8.09,14.97,8.46,1.21.09,2.33.09,3.63.09l.37-2.79c-2.05-.56-4.37-1.67-6.88-4.28-2.23-2.42-4-4.56-7.35-9.49ZM855.57,446.76c-2.42,1.86-5.49,2.7-10.23,2.7h-4.56v-22.51c0-2.33.28-3.44,1.02-4,.74-.56,2.23-1.02,5.02-1.02,6.97,0,13.76,3.53,13.76,13.49,0,4.93-1.49,8.56-5.02,11.35Z" />
		<path class="cls-1"
			d="M905.51,444.15c-7.25-3.63-11.72-6.88-11.72-13.58,0-4.74,3.07-9.95,10.23-9.95,8.09,0,10.32,6.6,11.9,12.37l3.25-.56c-.74-6.23-1.3-9.77-1.67-13.11-3.91-1.3-7.81-2.14-11.9-2.14-12.09,0-19.34,7.53-19.34,16.65,0,10.42,9.3,14.97,15.44,18.23,7.07,3.63,12.18,6.88,12.18,13.76s-4.18,10.88-11.07,10.88c-9.58,0-13.67-9.3-15.07-14.97l-3.26.74c.65,5.02,1.86,12.46,2.6,14.6.93.46,2.33,1.21,4.56,1.86,2.33.84,5.39,1.49,9.3,1.49,12.46,0,20.83-7.72,20.83-17.76s-8.93-14.88-16.28-18.51Z" />
		<path class="cls-2"
			d="M131.57,421.12c-.37,0-.7.15-.95.38.67.64,1.3,1.3,1.91,1.99.26-.25.42-.6.42-.99,0-.76-.62-1.38-1.38-1.38Z" />
		<path class="cls-2"
			d="M138.94,422.5c0-.75-.61-1.36-1.36-1.36s-1.36.61-1.36,1.36.61,1.36,1.36,1.36,1.36-.61,1.36-1.36Z" />
		<path class="cls-2"
			d="M144.91,422.5c0-.74-.6-1.33-1.33-1.33s-1.33.6-1.33,1.33.6,1.33,1.33,1.33,1.33-.6,1.33-1.33Z" />
		<path class="cls-2" d="M150.87,422.5c0-.72-.58-1.3-1.3-1.3s-1.3.58-1.3,1.3.58,1.3,1.3,1.3,1.3-.58,1.3-1.3Z" />
		<path class="cls-2"
			d="M156.84,422.5c0-.7-.57-1.26-1.26-1.26s-1.26.57-1.26,1.26.57,1.26,1.26,1.26,1.26-.57,1.26-1.26Z" />
		<path class="cls-2"
			d="M162.81,422.5c0-.68-.55-1.23-1.23-1.23s-1.23.55-1.23,1.23.55,1.23,1.23,1.23,1.23-.55,1.23-1.23Z" />
		<path class="cls-2" d="M168.77,422.5c0-.66-.54-1.2-1.2-1.2s-1.2.54-1.2,1.2.54,1.2,1.2,1.2,1.2-.54,1.2-1.2Z" />
		<path class="cls-2"
			d="M174.74,422.5c0-.64-.52-1.16-1.16-1.16s-1.16.52-1.16,1.16.52,1.16,1.16,1.16,1.16-.52,1.16-1.16Z" />
		<path class="cls-2"
			d="M180.69,422.5c0-.62-.5-1.11-1.11-1.11s-1.11.5-1.11,1.11.5,1.11,1.11,1.11,1.11-.5,1.11-1.11Z" />
		<path class="cls-2"
			d="M186.66,422.5c0-.6-.48-1.08-1.08-1.08s-1.08.48-1.08,1.08.48,1.08,1.08,1.08,1.08-.48,1.08-1.08Z" />
		<path class="cls-2"
			d="M192.62,422.5c0-.58-.47-1.05-1.05-1.05s-1.05.47-1.05,1.05.47,1.05,1.05,1.05,1.05-.47,1.05-1.05Z" />
		<path class="cls-2" d="M198.57,422.5c0-.55-.45-1-1-1s-1,.45-1,1,.45,1,1,1,1-.45,1-1Z" />
		<path class="cls-2" d="M204.54,422.5c0-.53-.43-.96-.96-.96s-.97.43-.97.96.43.97.97.97.96-.43.96-.97Z" />
		<path class="cls-2" d="M210.49,422.5c0-.51-.41-.92-.92-.92s-.92.41-.92.92.41.92.92.92.92-.41.92-.92Z" />
		<path class="cls-2" d="M216.46,422.5c0-.49-.39-.88-.88-.88s-.88.39-.88.88.39.88.88.88.88-.39.88-.88Z" />
		<path class="cls-2" d="M222.41,422.5c0-.46-.37-.83-.83-.83s-.83.37-.83.83.37.83.83.83.83-.37.83-.83Z" />
		<path class="cls-2" d="M228.37,422.5c0-.44-.36-.8-.8-.8s-.8.36-.8.8.36.8.8.8.8-.36.8-.8Z" />
		<path class="cls-2" d="M234.32,422.5c0-.41-.34-.75-.75-.75s-.75.34-.75.75.34.75.75.75.75-.34.75-.75Z" />
		<path class="cls-2" d="M240.29,422.5c0-.4-.32-.72-.72-.72s-.72.32-.72.72.32.72.72.72.72-.32.72-.72Z" />
		<path class="cls-2" d="M246.24,422.5c0-.37-.3-.67-.67-.67s-.67.3-.67.67.3.67.67.67.67-.3.67-.67Z" />
		<path class="cls-2" d="M252.19,422.5c0-.34-.28-.62-.62-.62s-.62.28-.62.62.28.62.62.62.62-.28.62-.62Z" />
		<path class="cls-2" d="M258.16,422.5c0-.32-.26-.58-.58-.58s-.58.26-.58.58.26.58.58.58.58-.26.58-.58Z" />
		<circle class="cls-2" cx="263.57" cy="422.5" r=".53" />
		<path class="cls-2" d="M270.06,422.5c0-.27-.22-.48-.48-.48s-.48.22-.48.48.22.48.48.48.48-.22.48-.48Z" />
		<path class="cls-2" d="M276.01,422.5c0-.24-.19-.43-.43-.43s-.43.19-.43.43.19.43.43.43.43-.19.43-.43Z" />
		<path class="cls-2" d="M281.97,422.5c0-.22-.18-.4-.4-.4s-.4.18-.4.4.18.4.4.4.4-.18.4-.4Z" />
		<path class="cls-2" d="M287.92,422.5c0-.19-.16-.35-.35-.35s-.35.16-.35.35.16.35.35.35.35-.16.35-.35Z" />
		<path class="cls-2" d="M293.87,422.5c0-.17-.13-.3-.3-.3s-.3.13-.3.3.13.3.3.3.3-.13.3-.3Z" />
		<path class="cls-2" d="M299.82,422.5c0-.14-.11-.25-.25-.25s-.25.11-.25.25.11.25.25.25.25-.11.25-.25Z" />
		<path class="cls-2" d="M305.77,422.5c0-.11-.09-.2-.2-.2s-.2.09-.2.2.09.2.2.2.2-.09.2-.2Z" />
		<path class="cls-2" d="M311.72,422.5c0-.08-.07-.15-.15-.15s-.15.07-.15.15.07.15.15.15.15-.07.15-.15Z" />
		<path class="cls-2" d="M317.67,422.5c0-.06-.04-.1-.1-.1s-.1.04-.1.1.04.1.1.1.1-.04.1-.1Z" />
		<path class="cls-2" d="M323.62,422.5s-.02-.05-.05-.05-.05.02-.05.05.02.05.05.05.05-.02.05-.05Z" />
		<path class="cls-2" d="M329.56,422.5s0,.02.02.02.02,0,.02-.02,0-.02-.02-.02-.02,0-.02.02Z" />
		<path class="cls-2"
			d="M137.57,425.79c-.96,0-1.79.5-2.28,1.25.7,1.03,1.36,2.09,1.95,3.22.17.32.31.63.47.95,1.43-.08,2.57-1.25,2.57-2.7s-1.21-2.71-2.71-2.71Z" />
		<path class="cls-2"
			d="M143.57,425.84c-1.47,0-2.66,1.19-2.66,2.66s1.19,2.66,2.66,2.66,2.66-1.19,2.66-2.66-1.19-2.66-2.66-2.66Z" />
		<path class="cls-2"
			d="M149.57,425.91c-1.43,0-2.6,1.16-2.6,2.6s1.16,2.6,2.6,2.6,2.6-1.16,2.6-2.6-1.16-2.6-2.6-2.6Z" />
		<path class="cls-2"
			d="M155.57,425.97c-1.4,0-2.53,1.13-2.53,2.53s1.13,2.53,2.53,2.53,2.53-1.13,2.53-2.53-1.13-2.53-2.53-2.53Z" />
		<path class="cls-2"
			d="M161.57,426.04c-1.36,0-2.46,1.1-2.46,2.46s1.1,2.46,2.46,2.46,2.46-1.1,2.46-2.46-1.1-2.46-2.46-2.46Z" />
		<path class="cls-2"
			d="M167.57,426.11c-1.32,0-2.4,1.07-2.4,2.4s1.07,2.4,2.4,2.4,2.4-1.07,2.4-2.4-1.07-2.4-2.4-2.4Z" />
		<path class="cls-2"
			d="M173.57,426.19c-1.28,0-2.31,1.04-2.31,2.31s1.04,2.31,2.31,2.31,2.31-1.04,2.31-2.31-1.04-2.31-2.31-2.31Z" />
		<path class="cls-2"
			d="M179.57,426.26c-1.24,0-2.25,1.01-2.25,2.25s1.01,2.25,2.25,2.25,2.25-1.01,2.25-2.25-1.01-2.25-2.25-2.25Z" />
		<path class="cls-2"
			d="M185.57,426.34c-1.19,0-2.16.97-2.16,2.16s.97,2.16,2.16,2.16,2.16-.97,2.16-2.16-.97-2.16-2.16-2.16Z" />
		<path class="cls-2" d="M191.57,426.4c-1.16,0-2.1.94-2.1,2.1s.94,2.1,2.1,2.1,2.1-.94,2.1-2.1-.94-2.1-2.1-2.1Z" />
		<path class="cls-2"
			d="M197.57,426.49c-1.11,0-2.01.9-2.01,2.01s.9,2.01,2.01,2.01,2.01-.9,2.01-2.01-.9-2.01-2.01-2.01Z" />
		<path class="cls-2"
			d="M203.57,426.57c-1.07,0-1.93.86-1.93,1.93s.86,1.93,1.93,1.93,1.93-.86,1.93-1.93-.86-1.93-1.93-1.93Z" />
		<path class="cls-2"
			d="M209.57,426.65c-1.02,0-1.85.83-1.85,1.85s.83,1.85,1.85,1.85,1.85-.83,1.85-1.85-.83-1.85-1.85-1.85Z" />
		<path class="cls-2"
			d="M215.57,426.74c-.97,0-1.76.79-1.76,1.76s.79,1.76,1.76,1.76,1.76-.79,1.76-1.76-.79-1.76-1.76-1.76Z" />
		<path class="cls-2"
			d="M221.57,426.82c-.93,0-1.68.75-1.68,1.68s.75,1.68,1.68,1.68,1.68-.75,1.68-1.68-.75-1.68-1.68-1.68Z" />
		<circle class="cls-2" cx="227.57" cy="428.5" r="1.6" />
		<path class="cls-2" d="M233.57,427c-.83,0-1.5.67-1.5,1.5s.67,1.5,1.5,1.5,1.5-.67,1.5-1.5-.67-1.5-1.5-1.5Z" />
		<path class="cls-2"
			d="M239.57,427.09c-.78,0-1.41.63-1.41,1.41s.63,1.41,1.41,1.41,1.41-.63,1.41-1.41-.63-1.41-1.41-1.41Z" />
		<path class="cls-2"
			d="M245.57,427.17c-.74,0-1.33.6-1.33,1.33s.6,1.33,1.33,1.33,1.33-.6,1.33-1.33-.6-1.33-1.33-1.33Z" />
		<path class="cls-2"
			d="M251.57,427.27c-.68,0-1.23.55-1.23,1.23s.55,1.23,1.23,1.23,1.23-.55,1.23-1.23-.55-1.23-1.23-1.23Z" />
		<path class="cls-2"
			d="M257.57,427.35c-.63,0-1.15.51-1.15,1.15s.51,1.15,1.15,1.15,1.15-.51,1.15-1.15-.51-1.15-1.15-1.15Z" />
		<circle class="cls-2" cx="263.57" cy="428.5" r="1.06" />
		<path class="cls-2" d="M269.57,427.54c-.53,0-.97.43-.97.96s.43.97.97.97.96-.43.96-.97-.43-.96-.96-.96Z" />
		<path class="cls-2" d="M275.57,427.62c-.49,0-.88.39-.88.88s.39.88.88.88.88-.39.88-.88-.39-.88-.88-.88Z" />
		<path class="cls-2" d="M281.57,427.72c-.43,0-.78.35-.78.78s.35.78.78.78.78-.35.78-.78-.35-.78-.78-.78Z" />
		<path class="cls-2" d="M287.57,427.82c-.38,0-.68.31-.68.68s.31.68.68.68.68-.31.68-.68-.31-.68-.68-.68Z" />
		<path class="cls-2" d="M293.57,427.92c-.32,0-.58.26-.58.58s.26.58.58.58.58-.26.58-.58-.26-.58-.58-.58Z" />
		<path class="cls-2" d="M299.57,428c-.28,0-.5.22-.5.5s.22.5.5.5.5-.22.5-.5-.22-.5-.5-.5Z" />
		<path class="cls-2" d="M305.57,428.1c-.22,0-.4.18-.4.4s.18.4.4.4.4-.18.4-.4-.18-.4-.4-.4Z" />
		<path class="cls-2" d="M311.57,428.2c-.17,0-.3.13-.3.3s.13.3.3.3.3-.13.3-.3-.13-.3-.3-.3Z" />
		<path class="cls-2" d="M317.57,428.3c-.11,0-.2.09-.2.2s.09.2.2.2.2-.09.2-.2-.09-.2-.2-.2Z" />
		<path class="cls-2" d="M323.57,428.4c-.06,0-.1.04-.1.1s.04.1.1.1.1-.04.1-.1-.04-.1-.1-.1Z" />
		<path class="cls-2" d="M329.56,428.5s0,.02.02.02.02,0,.02-.02,0-.02-.02-.02-.02,0-.02.02Z" />
		<path class="cls-2"
			d="M138.03,431.84c.67,1.42,1.25,2.84,1.73,4.26.33-.45.53-1,.53-1.6,0-1.34-.98-2.45-2.25-2.67Z" />
		<path class="cls-2"
			d="M143.57,431.84c-1.47,0-2.66,1.19-2.66,2.66s1.19,2.66,2.66,2.66,2.66-1.19,2.66-2.66-1.19-2.66-2.66-2.66Z" />
		<path class="cls-2"
			d="M149.57,431.91c-1.43,0-2.6,1.16-2.6,2.6s1.16,2.6,2.6,2.6,2.6-1.16,2.6-2.6-1.16-2.6-2.6-2.6Z" />
		<path class="cls-2"
			d="M155.57,431.97c-1.4,0-2.53,1.13-2.53,2.53s1.13,2.53,2.53,2.53,2.53-1.13,2.53-2.53-1.13-2.53-2.53-2.53Z" />
		<path class="cls-2"
			d="M161.57,432.04c-1.36,0-2.46,1.1-2.46,2.46s1.1,2.46,2.46,2.46,2.46-1.1,2.46-2.46-1.1-2.46-2.46-2.46Z" />
		<path class="cls-2"
			d="M167.57,432.11c-1.32,0-2.4,1.07-2.4,2.4s1.07,2.4,2.4,2.4,2.4-1.07,2.4-2.4-1.07-2.4-2.4-2.4Z" />
		<path class="cls-2"
			d="M173.57,432.19c-1.28,0-2.31,1.04-2.31,2.31s1.04,2.31,2.31,2.31,2.31-1.04,2.31-2.31-1.04-2.31-2.31-2.31Z" />
		<path class="cls-2"
			d="M179.57,432.26c-1.24,0-2.25,1.01-2.25,2.25s1.01,2.25,2.25,2.25,2.25-1.01,2.25-2.25-1.01-2.25-2.25-2.25Z" />
		<path class="cls-2"
			d="M185.57,432.34c-1.19,0-2.16.97-2.16,2.16s.97,2.16,2.16,2.16,2.16-.97,2.16-2.16-.97-2.16-2.16-2.16Z" />
		<path class="cls-2" d="M191.57,432.4c-1.16,0-2.1.94-2.1,2.1s.94,2.1,2.1,2.1,2.1-.94,2.1-2.1-.94-2.1-2.1-2.1Z" />
		<path class="cls-2"
			d="M197.57,432.49c-1.11,0-2.01.9-2.01,2.01s.9,2.01,2.01,2.01,2.01-.9,2.01-2.01-.9-2.01-2.01-2.01Z" />
		<path class="cls-2"
			d="M203.57,432.57c-1.07,0-1.93.86-1.93,1.93s.86,1.93,1.93,1.93,1.93-.86,1.93-1.93-.86-1.93-1.93-1.93Z" />
		<path class="cls-2"
			d="M209.57,432.65c-1.02,0-1.85.83-1.85,1.85s.83,1.85,1.85,1.85,1.85-.83,1.85-1.85-.83-1.85-1.85-1.85Z" />
		<path class="cls-2"
			d="M215.57,432.74c-.97,0-1.76.79-1.76,1.76s.79,1.76,1.76,1.76,1.76-.79,1.76-1.76-.79-1.76-1.76-1.76Z" />
		<path class="cls-2"
			d="M221.57,432.82c-.93,0-1.68.75-1.68,1.68s.75,1.68,1.68,1.68,1.68-.75,1.68-1.68-.75-1.68-1.68-1.68Z" />
		<circle class="cls-2" cx="227.57" cy="434.5" r="1.6" />
		<path class="cls-2" d="M233.57,433c-.83,0-1.5.67-1.5,1.5s.67,1.5,1.5,1.5,1.5-.67,1.5-1.5-.67-1.5-1.5-1.5Z" />
		<path class="cls-2"
			d="M239.57,433.09c-.78,0-1.41.63-1.41,1.41s.63,1.41,1.41,1.41,1.41-.63,1.41-1.41-.63-1.41-1.41-1.41Z" />
		<path class="cls-2"
			d="M245.57,433.17c-.74,0-1.33.6-1.33,1.33s.6,1.33,1.33,1.33,1.33-.6,1.33-1.33-.6-1.33-1.33-1.33Z" />
		<path class="cls-2"
			d="M251.57,433.27c-.68,0-1.23.55-1.23,1.23s.55,1.23,1.23,1.23,1.23-.55,1.23-1.23-.55-1.23-1.23-1.23Z" />
		<path class="cls-2"
			d="M257.57,433.35c-.63,0-1.15.51-1.15,1.15s.51,1.15,1.15,1.15,1.15-.51,1.15-1.15-.51-1.15-1.15-1.15Z" />
		<circle class="cls-2" cx="263.57" cy="434.5" r="1.06" />
		<path class="cls-2" d="M269.57,433.54c-.53,0-.97.43-.97.96s.43.97.97.97.96-.43.96-.97-.43-.96-.96-.96Z" />
		<path class="cls-2" d="M275.57,433.62c-.49,0-.88.39-.88.88s.39.88.88.88.88-.39.88-.88-.39-.88-.88-.88Z" />
		<path class="cls-2" d="M281.57,433.72c-.43,0-.78.35-.78.78s.35.78.78.78.78-.35.78-.78-.35-.78-.78-.78Z" />
		<path class="cls-2" d="M287.57,433.82c-.38,0-.68.31-.68.68s.31.68.68.68.68-.31.68-.68-.31-.68-.68-.68Z" />
		<path class="cls-2" d="M293.57,433.92c-.32,0-.58.26-.58.58s.26.58.58.58.58-.26.58-.58-.26-.58-.58-.58Z" />
		<path class="cls-2" d="M299.57,434c-.28,0-.5.22-.5.5s.22.5.5.5.5-.22.5-.5-.22-.5-.5-.5Z" />
		<path class="cls-2" d="M305.57,434.1c-.22,0-.4.18-.4.4s.18.4.4.4.4-.18.4-.4-.18-.4-.4-.4Z" />
		<path class="cls-2" d="M311.57,434.2c-.17,0-.3.13-.3.3s.13.3.3.3.3-.13.3-.3-.13-.3-.3-.3Z" />
		<path class="cls-2" d="M317.57,434.3c-.11,0-.2.09-.2.2s.09.2.2.2.2-.09.2-.2-.09-.2-.2-.2Z" />
		<path class="cls-2" d="M323.57,434.4c-.06,0-.1.04-.1.1s.04.1.1.1.1-.04.1-.1-.04-.1-.1-.1Z" />
		<path class="cls-2" d="M329.56,434.5s0,.02.02.02.02,0,.02-.02,0-.02-.02-.02-.02,0-.02.02Z" />
		<path class="cls-2"
			d="M143.57,437.84c-1.47,0-2.66,1.19-2.66,2.66,0,.06.01.12.02.19.03.19.07.37.1.56.32,1.1,1.33,1.92,2.54,1.92,1.47,0,2.66-1.19,2.66-2.66s-1.19-2.66-2.66-2.66Z" />
		<path class="cls-2"
			d="M149.57,437.91c-1.43,0-2.6,1.16-2.6,2.6s1.16,2.6,2.6,2.6,2.6-1.16,2.6-2.6-1.16-2.6-2.6-2.6Z" />
		<path class="cls-2"
			d="M155.57,437.97c-1.4,0-2.53,1.13-2.53,2.53s1.13,2.53,2.53,2.53,2.53-1.13,2.53-2.53-1.13-2.53-2.53-2.53Z" />
		<path class="cls-2"
			d="M161.57,438.04c-1.36,0-2.46,1.1-2.46,2.46s1.1,2.46,2.46,2.46,2.46-1.1,2.46-2.46-1.1-2.46-2.46-2.46Z" />
		<path class="cls-2"
			d="M167.57,438.11c-1.32,0-2.4,1.07-2.4,2.4s1.07,2.4,2.4,2.4,2.4-1.07,2.4-2.4-1.07-2.4-2.4-2.4Z" />
		<path class="cls-2"
			d="M173.57,438.19c-1.28,0-2.31,1.04-2.31,2.31s1.04,2.31,2.31,2.31,2.31-1.04,2.31-2.31-1.04-2.31-2.31-2.31Z" />
		<path class="cls-2"
			d="M179.57,438.26c-1.24,0-2.25,1.01-2.25,2.25s1.01,2.25,2.25,2.25,2.25-1.01,2.25-2.25-1.01-2.25-2.25-2.25Z" />
		<path class="cls-2"
			d="M185.57,438.34c-1.19,0-2.16.97-2.16,2.16s.97,2.16,2.16,2.16,2.16-.97,2.16-2.16-.97-2.16-2.16-2.16Z" />
		<path class="cls-2" d="M191.57,438.4c-1.16,0-2.1.94-2.1,2.1s.94,2.1,2.1,2.1,2.1-.94,2.1-2.1-.94-2.1-2.1-2.1Z" />
		<path class="cls-2"
			d="M197.57,438.49c-1.11,0-2.01.9-2.01,2.01s.9,2.01,2.01,2.01,2.01-.9,2.01-2.01-.9-2.01-2.01-2.01Z" />
		<path class="cls-2"
			d="M203.57,438.57c-1.07,0-1.93.86-1.93,1.93s.86,1.93,1.93,1.93,1.93-.86,1.93-1.93-.86-1.93-1.93-1.93Z" />
		<path class="cls-2"
			d="M209.57,438.65c-1.02,0-1.85.83-1.85,1.85s.83,1.85,1.85,1.85,1.85-.83,1.85-1.85-.83-1.85-1.85-1.85Z" />
		<path class="cls-2"
			d="M215.57,438.74c-.97,0-1.76.79-1.76,1.76s.79,1.76,1.76,1.76,1.76-.79,1.76-1.76-.79-1.76-1.76-1.76Z" />
		<path class="cls-2"
			d="M221.57,438.82c-.93,0-1.68.75-1.68,1.68s.75,1.68,1.68,1.68,1.68-.75,1.68-1.68-.75-1.68-1.68-1.68Z" />
		<circle class="cls-2" cx="227.57" cy="440.5" r="1.6" />
		<path class="cls-2" d="M233.57,439c-.83,0-1.5.67-1.5,1.5s.67,1.5,1.5,1.5,1.5-.67,1.5-1.5-.67-1.5-1.5-1.5Z" />
		<path class="cls-2"
			d="M239.57,439.09c-.78,0-1.41.63-1.41,1.41s.63,1.41,1.41,1.41,1.41-.63,1.41-1.41-.63-1.41-1.41-1.41Z" />
		<path class="cls-2"
			d="M245.57,439.17c-.74,0-1.33.6-1.33,1.33s.6,1.33,1.33,1.33,1.33-.6,1.33-1.33-.6-1.33-1.33-1.33Z" />
		<path class="cls-2"
			d="M251.57,439.27c-.68,0-1.23.55-1.23,1.23s.55,1.23,1.23,1.23,1.23-.55,1.23-1.23-.55-1.23-1.23-1.23Z" />
		<path class="cls-2"
			d="M257.57,439.35c-.63,0-1.15.51-1.15,1.15s.51,1.15,1.15,1.15,1.15-.51,1.15-1.15-.51-1.15-1.15-1.15Z" />
		<circle class="cls-2" cx="263.57" cy="440.5" r="1.06" />
		<path class="cls-2" d="M269.57,439.54c-.53,0-.97.43-.97.96s.43.97.97.97.96-.43.96-.97-.43-.96-.96-.96Z" />
		<path class="cls-2" d="M275.57,439.62c-.49,0-.88.39-.88.88s.39.88.88.88.88-.39.88-.88-.39-.88-.88-.88Z" />
		<path class="cls-2" d="M281.57,439.72c-.43,0-.78.35-.78.78s.35.78.78.78.78-.35.78-.78-.35-.78-.78-.78Z" />
		<path class="cls-2" d="M287.57,439.82c-.38,0-.68.31-.68.68s.31.68.68.68.68-.31.68-.68-.31-.68-.68-.68Z" />
		<path class="cls-2" d="M293.57,439.92c-.32,0-.58.26-.58.58s.26.58.58.58.58-.26.58-.58-.26-.58-.58-.58Z" />
		<path class="cls-2" d="M299.57,440c-.28,0-.5.22-.5.5s.22.5.5.5.5-.22.5-.5-.22-.5-.5-.5Z" />
		<path class="cls-2" d="M305.57,440.1c-.22,0-.4.18-.4.4s.18.4.4.4.4-.18.4-.4-.18-.4-.4-.4Z" />
		<path class="cls-2" d="M311.57,440.2c-.17,0-.3.13-.3.3s.13.3.3.3.3-.13.3-.3-.13-.3-.3-.3Z" />
		<path class="cls-2" d="M317.57,440.3c-.11,0-.2.09-.2.2s.09.2.2.2.2-.09.2-.2-.09-.2-.2-.2Z" />
		<path class="cls-2" d="M323.57,440.4c-.06,0-.1.04-.1.1s.04.1.1.1.1-.04.1-.1-.04-.1-.1-.1Z" />
		<path class="cls-2" d="M329.56,440.5s0,.02.02.02.02,0,.02-.02,0-.02-.02-.02-.02,0-.02.02Z" />
		<path class="cls-2"
			d="M143.57,443.84c-.89,0-1.68.44-2.16,1.11.05,1.02.04,2.05-.02,3.08.48.68,1.27,1.13,2.17,1.13,1.47,0,2.66-1.19,2.66-2.66s-1.19-2.66-2.66-2.66Z" />
		<path class="cls-2"
			d="M149.57,443.91c-1.43,0-2.6,1.16-2.6,2.6s1.16,2.6,2.6,2.6,2.6-1.16,2.6-2.6-1.16-2.6-2.6-2.6Z" />
		<path class="cls-2"
			d="M155.57,443.97c-1.4,0-2.53,1.13-2.53,2.53s1.13,2.53,2.53,2.53,2.53-1.13,2.53-2.53-1.13-2.53-2.53-2.53Z" />
		<path class="cls-2"
			d="M161.57,444.04c-1.36,0-2.46,1.1-2.46,2.46s1.1,2.46,2.46,2.46,2.46-1.1,2.46-2.46-1.1-2.46-2.46-2.46Z" />
		<path class="cls-2"
			d="M167.57,444.11c-1.32,0-2.4,1.07-2.4,2.4s1.07,2.4,2.4,2.4,2.4-1.07,2.4-2.4-1.07-2.4-2.4-2.4Z" />
		<path class="cls-2"
			d="M173.57,444.19c-1.28,0-2.31,1.04-2.31,2.31s1.04,2.31,2.31,2.31,2.31-1.04,2.31-2.31-1.04-2.31-2.31-2.31Z" />
		<path class="cls-2"
			d="M179.57,444.26c-1.24,0-2.25,1.01-2.25,2.25s1.01,2.25,2.25,2.25,2.25-1.01,2.25-2.25-1.01-2.25-2.25-2.25Z" />
		<path class="cls-2"
			d="M185.57,444.34c-1.19,0-2.16.97-2.16,2.16s.97,2.16,2.16,2.16,2.16-.97,2.16-2.16-.97-2.16-2.16-2.16Z" />
		<path class="cls-2" d="M191.57,444.4c-1.16,0-2.1.94-2.1,2.1s.94,2.1,2.1,2.1,2.1-.94,2.1-2.1-.94-2.1-2.1-2.1Z" />
		<path class="cls-2"
			d="M197.57,444.49c-1.11,0-2.01.9-2.01,2.01s.9,2.01,2.01,2.01,2.01-.9,2.01-2.01-.9-2.01-2.01-2.01Z" />
		<path class="cls-2"
			d="M203.57,444.57c-1.07,0-1.93.86-1.93,1.93s.86,1.93,1.93,1.93,1.93-.86,1.93-1.93-.86-1.93-1.93-1.93Z" />
		<path class="cls-2"
			d="M209.57,444.65c-1.02,0-1.85.83-1.85,1.85s.83,1.85,1.85,1.85,1.85-.83,1.85-1.85-.83-1.85-1.85-1.85Z" />
		<path class="cls-2"
			d="M215.57,444.74c-.97,0-1.76.79-1.76,1.76s.79,1.76,1.76,1.76,1.76-.79,1.76-1.76-.79-1.76-1.76-1.76Z" />
		<path class="cls-2"
			d="M221.57,444.82c-.93,0-1.68.75-1.68,1.68s.75,1.68,1.68,1.68,1.68-.75,1.68-1.68-.75-1.68-1.68-1.68Z" />
		<circle class="cls-2" cx="227.57" cy="446.5" r="1.6" />
		<path class="cls-2" d="M233.57,445c-.83,0-1.5.67-1.5,1.5s.67,1.5,1.5,1.5,1.5-.67,1.5-1.5-.67-1.5-1.5-1.5Z" />
		<path class="cls-2"
			d="M239.57,445.09c-.78,0-1.41.63-1.41,1.41s.63,1.41,1.41,1.41,1.41-.63,1.41-1.41-.63-1.41-1.41-1.41Z" />
		<path class="cls-2"
			d="M245.57,445.17c-.74,0-1.33.6-1.33,1.33s.6,1.33,1.33,1.33,1.33-.6,1.33-1.33-.6-1.33-1.33-1.33Z" />
		<path class="cls-2"
			d="M251.57,445.27c-.68,0-1.23.55-1.23,1.23s.55,1.23,1.23,1.23,1.23-.55,1.23-1.23-.55-1.23-1.23-1.23Z" />
		<path class="cls-2"
			d="M257.57,445.35c-.63,0-1.15.51-1.15,1.15s.51,1.15,1.15,1.15,1.15-.51,1.15-1.15-.51-1.15-1.15-1.15Z" />
		<circle class="cls-2" cx="263.57" cy="446.5" r="1.06" />
		<path class="cls-2" d="M269.57,445.54c-.53,0-.97.43-.97.96s.43.97.97.97.96-.43.96-.97-.43-.96-.96-.96Z" />
		<path class="cls-2" d="M275.57,445.62c-.49,0-.88.39-.88.88s.39.88.88.88.88-.39.88-.88-.39-.88-.88-.88Z" />
		<path class="cls-2" d="M281.57,445.72c-.43,0-.78.35-.78.78s.35.78.78.78.78-.35.78-.78-.35-.78-.78-.78Z" />
		<path class="cls-2" d="M287.57,445.82c-.38,0-.68.31-.68.68s.31.68.68.68.68-.31.68-.68-.31-.68-.68-.68Z" />
		<path class="cls-2" d="M293.57,445.92c-.32,0-.58.26-.58.58s.26.58.58.58.58-.26.58-.58-.26-.58-.58-.58Z" />
		<path class="cls-2" d="M299.57,446c-.28,0-.5.22-.5.5s.22.5.5.5.5-.22.5-.5-.22-.5-.5-.5Z" />
		<path class="cls-2" d="M305.57,446.1c-.22,0-.4.18-.4.4s.18.4.4.4.4-.18.4-.4-.18-.4-.4-.4Z" />
		<path class="cls-2" d="M311.57,446.2c-.17,0-.3.13-.3.3s.13.3.3.3.3-.13.3-.3-.13-.3-.3-.3Z" />
		<path class="cls-2" d="M317.57,446.3c-.11,0-.2.09-.2.2s.09.2.2.2.2-.09.2-.2-.09-.2-.2-.2Z" />
		<path class="cls-2" d="M323.57,446.4c-.06,0-.1.04-.1.1s.04.1.1.1.1-.04.1-.1-.04-.1-.1-.1Z" />
		<path class="cls-2" d="M329.56,446.5s0,.02.02.02.02,0,.02-.02,0-.02-.02-.02-.02,0-.02.02Z" />
		<path class="cls-2"
			d="M143.57,449.84c-1.47,0-2.66,1.19-2.66,2.66s1.19,2.66,2.66,2.66,2.66-1.19,2.66-2.66-1.19-2.66-2.66-2.66Z" />
		<path class="cls-2"
			d="M149.57,449.91c-1.43,0-2.6,1.16-2.6,2.6s1.16,2.6,2.6,2.6,2.6-1.16,2.6-2.6-1.16-2.6-2.6-2.6Z" />
		<path class="cls-2"
			d="M155.57,449.97c-1.4,0-2.53,1.13-2.53,2.53s1.13,2.53,2.53,2.53,2.53-1.13,2.53-2.53-1.13-2.53-2.53-2.53Z" />
		<path class="cls-2"
			d="M161.57,450.04c-1.36,0-2.46,1.1-2.46,2.46s1.1,2.46,2.46,2.46,2.46-1.1,2.46-2.46-1.1-2.46-2.46-2.46Z" />
		<path class="cls-2"
			d="M167.57,450.11c-1.32,0-2.4,1.07-2.4,2.4s1.07,2.4,2.4,2.4,2.4-1.07,2.4-2.4-1.07-2.4-2.4-2.4Z" />
		<path class="cls-2"
			d="M173.57,450.19c-1.28,0-2.31,1.04-2.31,2.31s1.04,2.31,2.31,2.31,2.31-1.04,2.31-2.31-1.04-2.31-2.31-2.31Z" />
		<path class="cls-2"
			d="M179.57,450.26c-1.24,0-2.25,1.01-2.25,2.25s1.01,2.25,2.25,2.25,2.25-1.01,2.25-2.25-1.01-2.25-2.25-2.25Z" />
		<path class="cls-2"
			d="M185.57,450.34c-1.19,0-2.16.97-2.16,2.16s.97,2.16,2.16,2.16,2.16-.97,2.16-2.16-.97-2.16-2.16-2.16Z" />
		<path class="cls-2" d="M191.57,450.4c-1.16,0-2.1.94-2.1,2.1s.94,2.1,2.1,2.1,2.1-.94,2.1-2.1-.94-2.1-2.1-2.1Z" />
		<path class="cls-2"
			d="M197.57,450.49c-1.11,0-2.01.9-2.01,2.01s.9,2.01,2.01,2.01,2.01-.9,2.01-2.01-.9-2.01-2.01-2.01Z" />
		<path class="cls-2"
			d="M203.57,450.57c-1.07,0-1.93.86-1.93,1.93s.86,1.93,1.93,1.93,1.93-.86,1.93-1.93-.86-1.93-1.93-1.93Z" />
		<path class="cls-2"
			d="M209.57,450.65c-1.02,0-1.85.83-1.85,1.85s.83,1.85,1.85,1.85,1.85-.83,1.85-1.85-.83-1.85-1.85-1.85Z" />
		<path class="cls-2"
			d="M215.57,450.74c-.97,0-1.76.79-1.76,1.76s.79,1.76,1.76,1.76,1.76-.79,1.76-1.76-.79-1.76-1.76-1.76Z" />
		<path class="cls-2"
			d="M221.57,450.82c-.93,0-1.68.75-1.68,1.68s.75,1.68,1.68,1.68,1.68-.75,1.68-1.68-.75-1.68-1.68-1.68Z" />
		<circle class="cls-2" cx="227.57" cy="452.5" r="1.6" />
		<path class="cls-2" d="M233.57,451c-.83,0-1.5.67-1.5,1.5s.67,1.5,1.5,1.5,1.5-.67,1.5-1.5-.67-1.5-1.5-1.5Z" />
		<path class="cls-2"
			d="M239.57,451.09c-.78,0-1.41.63-1.41,1.41s.63,1.41,1.41,1.41,1.41-.63,1.41-1.41-.63-1.41-1.41-1.41Z" />
		<path class="cls-2"
			d="M245.57,451.17c-.74,0-1.33.6-1.33,1.33s.6,1.33,1.33,1.33,1.33-.6,1.33-1.33-.6-1.33-1.33-1.33Z" />
		<path class="cls-2"
			d="M251.57,451.27c-.68,0-1.23.55-1.23,1.23s.55,1.23,1.23,1.23,1.23-.55,1.23-1.23-.55-1.23-1.23-1.23Z" />
		<path class="cls-2"
			d="M257.57,451.35c-.63,0-1.15.51-1.15,1.15s.51,1.15,1.15,1.15,1.15-.51,1.15-1.15-.51-1.15-1.15-1.15Z" />
		<circle class="cls-2" cx="263.57" cy="452.5" r="1.06" />
		<path class="cls-2" d="M269.57,451.54c-.53,0-.97.43-.97.96s.43.97.97.97.96-.43.96-.97-.43-.96-.96-.96Z" />
		<path class="cls-2" d="M275.57,451.62c-.49,0-.88.39-.88.88s.39.88.88.88.88-.39.88-.88-.39-.88-.88-.88Z" />
		<path class="cls-2" d="M281.57,451.72c-.43,0-.78.35-.78.78s.35.78.78.78.78-.35.78-.78-.35-.78-.78-.78Z" />
		<path class="cls-2" d="M287.57,451.82c-.38,0-.68.31-.68.68s.31.68.68.68.68-.31.68-.68-.31-.68-.68-.68Z" />
		<path class="cls-2" d="M293.57,451.92c-.32,0-.58.26-.58.58s.26.58.58.58.58-.26.58-.58-.26-.58-.58-.58Z" />
		<path class="cls-2" d="M299.57,452c-.28,0-.5.22-.5.5s.22.5.5.5.5-.22.5-.5-.22-.5-.5-.5Z" />
		<path class="cls-2" d="M305.57,452.1c-.22,0-.4.18-.4.4s.18.4.4.4.4-.18.4-.4-.18-.4-.4-.4Z" />
		<path class="cls-2" d="M311.57,452.2c-.17,0-.3.13-.3.3s.13.3.3.3.3-.13.3-.3-.13-.3-.3-.3Z" />
		<path class="cls-2" d="M317.57,452.3c-.11,0-.2.09-.2.2s.09.2.2.2.2-.09.2-.2-.09-.2-.2-.2Z" />
		<path class="cls-2" d="M323.57,452.4c-.06,0-.1.04-.1.1s.04.1.1.1.1-.04.1-.1-.04-.1-.1-.1Z" />
		<path class="cls-2" d="M329.56,452.5s0,.02.02.02.02,0,.02-.02,0-.02-.02-.02-.02,0-.02.02Z" />
		<path class="cls-2"
			d="M137.89,461.14s-.02.03-.02.04c1.36-.15,2.42-1.29,2.42-2.68,0-.65-.24-1.24-.62-1.71-.49,1.45-1.08,2.9-1.77,4.35Z" />
		<path class="cls-2"
			d="M143.57,455.84c-1.47,0-2.66,1.19-2.66,2.66s1.19,2.66,2.66,2.66,2.66-1.19,2.66-2.66-1.19-2.66-2.66-2.66Z" />
		<path class="cls-2"
			d="M149.57,455.91c-1.43,0-2.6,1.16-2.6,2.6s1.16,2.6,2.6,2.6,2.6-1.16,2.6-2.6-1.16-2.6-2.6-2.6Z" />
		<path class="cls-2"
			d="M155.57,455.97c-1.4,0-2.53,1.13-2.53,2.53s1.13,2.53,2.53,2.53,2.53-1.13,2.53-2.53-1.13-2.53-2.53-2.53Z" />
		<path class="cls-2"
			d="M161.57,456.04c-1.36,0-2.46,1.1-2.46,2.46s1.1,2.46,2.46,2.46,2.46-1.1,2.46-2.46-1.1-2.46-2.46-2.46Z" />
		<path class="cls-2"
			d="M167.57,456.11c-1.32,0-2.4,1.07-2.4,2.4s1.07,2.4,2.4,2.4,2.4-1.07,2.4-2.4-1.07-2.4-2.4-2.4Z" />
		<path class="cls-2"
			d="M173.57,456.19c-1.28,0-2.31,1.04-2.31,2.31s1.04,2.31,2.31,2.31,2.31-1.04,2.31-2.31-1.04-2.31-2.31-2.31Z" />
		<path class="cls-2"
			d="M179.57,456.26c-1.24,0-2.25,1.01-2.25,2.25s1.01,2.25,2.25,2.25,2.25-1.01,2.25-2.25-1.01-2.25-2.25-2.25Z" />
		<path class="cls-2"
			d="M185.57,456.34c-1.19,0-2.16.97-2.16,2.16s.97,2.16,2.16,2.16,2.16-.97,2.16-2.16-.97-2.16-2.16-2.16Z" />
		<path class="cls-2" d="M191.57,456.4c-1.16,0-2.1.94-2.1,2.1s.94,2.1,2.1,2.1,2.1-.94,2.1-2.1-.94-2.1-2.1-2.1Z" />
		<path class="cls-2"
			d="M197.57,456.49c-1.11,0-2.01.9-2.01,2.01s.9,2.01,2.01,2.01,2.01-.9,2.01-2.01-.9-2.01-2.01-2.01Z" />
		<path class="cls-2"
			d="M203.57,456.57c-1.07,0-1.93.86-1.93,1.93s.86,1.93,1.93,1.93,1.93-.86,1.93-1.93-.86-1.93-1.93-1.93Z" />
		<path class="cls-2"
			d="M209.57,456.65c-1.02,0-1.85.83-1.85,1.85s.83,1.85,1.85,1.85,1.85-.83,1.85-1.85-.83-1.85-1.85-1.85Z" />
		<path class="cls-2"
			d="M215.57,456.74c-.97,0-1.76.79-1.76,1.76s.79,1.76,1.76,1.76,1.76-.79,1.76-1.76-.79-1.76-1.76-1.76Z" />
		<path class="cls-2"
			d="M221.57,456.82c-.93,0-1.68.75-1.68,1.68s.75,1.68,1.68,1.68,1.68-.75,1.68-1.68-.75-1.68-1.68-1.68Z" />
		<circle class="cls-2" cx="227.57" cy="458.5" r="1.6" />
		<path class="cls-2" d="M233.57,457c-.83,0-1.5.67-1.5,1.5s.67,1.5,1.5,1.5,1.5-.67,1.5-1.5-.67-1.5-1.5-1.5Z" />
		<path class="cls-2"
			d="M239.57,457.09c-.78,0-1.41.63-1.41,1.41s.63,1.41,1.41,1.41,1.41-.63,1.41-1.41-.63-1.41-1.41-1.41Z" />
		<path class="cls-2"
			d="M245.57,457.17c-.74,0-1.33.6-1.33,1.33s.6,1.33,1.33,1.33,1.33-.6,1.33-1.33-.6-1.33-1.33-1.33Z" />
		<path class="cls-2"
			d="M251.57,457.27c-.68,0-1.23.55-1.23,1.23s.55,1.23,1.23,1.23,1.23-.55,1.23-1.23-.55-1.23-1.23-1.23Z" />
		<path class="cls-2"
			d="M257.57,457.35c-.63,0-1.15.51-1.15,1.15s.51,1.15,1.15,1.15,1.15-.51,1.15-1.15-.51-1.15-1.15-1.15Z" />
		<circle class="cls-2" cx="263.57" cy="458.5" r="1.06" />
		<path class="cls-2" d="M269.57,457.54c-.53,0-.97.43-.97.96s.43.97.97.97.96-.43.96-.97-.43-.96-.96-.96Z" />
		<path class="cls-2" d="M275.57,457.62c-.49,0-.88.39-.88.88s.39.88.88.88.88-.39.88-.88-.39-.88-.88-.88Z" />
		<path class="cls-2" d="M281.57,457.72c-.43,0-.78.35-.78.78s.35.78.78.78.78-.35.78-.78-.35-.78-.78-.78Z" />
		<path class="cls-2" d="M287.57,457.82c-.38,0-.68.31-.68.68s.31.68.68.68.68-.31.68-.68-.31-.68-.68-.68Z" />
		<path class="cls-2" d="M293.57,457.92c-.32,0-.58.26-.58.58s.26.58.58.58.58-.26.58-.58-.26-.58-.58-.58Z" />
		<path class="cls-2" d="M299.57,458c-.28,0-.5.22-.5.5s.22.5.5.5.5-.22.5-.5-.22-.5-.5-.5Z" />
		<path class="cls-2" d="M305.57,458.1c-.22,0-.4.18-.4.4s.18.4.4.4.4-.18.4-.4-.18-.4-.4-.4Z" />
		<path class="cls-2" d="M311.57,458.2c-.17,0-.3.13-.3.3s.13.3.3.3.3-.13.3-.3-.13-.3-.3-.3Z" />
		<path class="cls-2" d="M317.57,458.3c-.11,0-.2.09-.2.2s.09.2.2.2.2-.09.2-.2-.09-.2-.2-.2Z" />
		<path class="cls-2" d="M323.57,458.4c-.06,0-.1.04-.1.1s.04.1.1.1.1-.04.1-.1-.04-.1-.1-.1Z" />
		<path class="cls-2" d="M329.56,458.5s0,.02.02.02.02,0,.02-.02,0-.02-.02-.02-.02,0-.02.02Z" />
		<path class="cls-2"
			d="M137.57,461.79s-.01,0-.02,0c-.7,1.39-1.5,2.71-2.37,3.96.45.86,1.35,1.46,2.39,1.46,1.5,0,2.71-1.21,2.71-2.71s-1.21-2.71-2.71-2.71Z" />
		<path class="cls-2"
			d="M143.57,461.84c-1.47,0-2.66,1.19-2.66,2.66s1.19,2.66,2.66,2.66,2.66-1.19,2.66-2.66-1.19-2.66-2.66-2.66Z" />
		<path class="cls-2"
			d="M149.57,461.91c-1.43,0-2.6,1.16-2.6,2.6s1.16,2.6,2.6,2.6,2.6-1.16,2.6-2.6-1.16-2.6-2.6-2.6Z" />
		<path class="cls-2"
			d="M155.57,461.97c-1.4,0-2.53,1.13-2.53,2.53s1.13,2.53,2.53,2.53,2.53-1.13,2.53-2.53-1.13-2.53-2.53-2.53Z" />
		<path class="cls-2"
			d="M161.57,462.04c-1.36,0-2.46,1.1-2.46,2.46s1.1,2.46,2.46,2.46,2.46-1.1,2.46-2.46-1.1-2.46-2.46-2.46Z" />
		<path class="cls-2"
			d="M167.57,462.11c-1.32,0-2.4,1.07-2.4,2.4s1.07,2.4,2.4,2.4,2.4-1.07,2.4-2.4-1.07-2.4-2.4-2.4Z" />
		<path class="cls-2"
			d="M173.57,462.19c-1.28,0-2.31,1.04-2.31,2.31s1.04,2.31,2.31,2.31,2.31-1.04,2.31-2.31-1.04-2.31-2.31-2.31Z" />
		<path class="cls-2"
			d="M179.57,462.26c-1.24,0-2.25,1.01-2.25,2.25s1.01,2.25,2.25,2.25,2.25-1.01,2.25-2.25-1.01-2.25-2.25-2.25Z" />
		<path class="cls-2"
			d="M185.57,462.34c-1.19,0-2.16.97-2.16,2.16s.97,2.16,2.16,2.16,2.16-.97,2.16-2.16-.97-2.16-2.16-2.16Z" />
		<path class="cls-2" d="M191.57,462.4c-1.16,0-2.1.94-2.1,2.1s.94,2.1,2.1,2.1,2.1-.94,2.1-2.1-.94-2.1-2.1-2.1Z" />
		<path class="cls-2"
			d="M197.57,462.49c-1.11,0-2.01.9-2.01,2.01s.9,2.01,2.01,2.01,2.01-.9,2.01-2.01-.9-2.01-2.01-2.01Z" />
		<path class="cls-2"
			d="M203.57,462.57c-1.07,0-1.93.86-1.93,1.93s.86,1.93,1.93,1.93,1.93-.86,1.93-1.93-.86-1.93-1.93-1.93Z" />
		<path class="cls-2"
			d="M209.57,462.65c-1.02,0-1.85.83-1.85,1.85s.83,1.85,1.85,1.85,1.85-.83,1.85-1.85-.83-1.85-1.85-1.85Z" />
		<path class="cls-2"
			d="M215.57,462.74c-.97,0-1.76.79-1.76,1.76s.79,1.76,1.76,1.76,1.76-.79,1.76-1.76-.79-1.76-1.76-1.76Z" />
		<path class="cls-2"
			d="M221.57,462.82c-.93,0-1.68.75-1.68,1.68s.75,1.68,1.68,1.68,1.68-.75,1.68-1.68-.75-1.68-1.68-1.68Z" />
		<circle class="cls-2" cx="227.57" cy="464.5" r="1.6" />
		<path class="cls-2" d="M233.57,463c-.83,0-1.5.67-1.5,1.5s.67,1.5,1.5,1.5,1.5-.67,1.5-1.5-.67-1.5-1.5-1.5Z" />
		<path class="cls-2"
			d="M239.57,463.09c-.78,0-1.41.63-1.41,1.41s.63,1.41,1.41,1.41,1.41-.63,1.41-1.41-.63-1.41-1.41-1.41Z" />
		<path class="cls-2"
			d="M245.57,463.17c-.74,0-1.33.6-1.33,1.33s.6,1.33,1.33,1.33,1.33-.6,1.33-1.33-.6-1.33-1.33-1.33Z" />
		<path class="cls-2"
			d="M251.57,463.27c-.68,0-1.23.55-1.23,1.23s.55,1.23,1.23,1.23,1.23-.55,1.23-1.23-.55-1.23-1.23-1.23Z" />
		<path class="cls-2"
			d="M257.57,463.35c-.63,0-1.15.51-1.15,1.15s.51,1.15,1.15,1.15,1.15-.51,1.15-1.15-.51-1.15-1.15-1.15Z" />
		<circle class="cls-2" cx="263.57" cy="464.5" r="1.06" />
		<path class="cls-2" d="M269.57,463.54c-.53,0-.97.43-.97.96s.43.97.97.97.96-.43.96-.97-.43-.96-.96-.96Z" />
		<path class="cls-2" d="M275.57,463.62c-.49,0-.88.39-.88.88s.39.88.88.88.88-.39.88-.88-.39-.88-.88-.88Z" />
		<path class="cls-2" d="M281.57,463.72c-.43,0-.78.35-.78.78s.35.78.78.78.78-.35.78-.78-.35-.78-.78-.78Z" />
		<path class="cls-2" d="M287.57,463.82c-.38,0-.68.31-.68.68s.31.68.68.68.68-.31.68-.68-.31-.68-.68-.68Z" />
		<path class="cls-2" d="M293.57,463.92c-.32,0-.58.26-.58.58s.26.58.58.58.58-.26.58-.58-.26-.58-.58-.58Z" />
		<path class="cls-2" d="M299.57,464c-.28,0-.5.22-.5.5s.22.5.5.5.5-.22.5-.5-.22-.5-.5-.5Z" />
		<path class="cls-2" d="M305.57,464.1c-.22,0-.4.18-.4.4s.18.4.4.4.4-.18.4-.4-.18-.4-.4-.4Z" />
		<path class="cls-2" d="M311.57,464.2c-.17,0-.3.13-.3.3s.13.3.3.3.3-.13.3-.3-.13-.3-.3-.3Z" />
		<path class="cls-2" d="M317.57,464.3c-.11,0-.2.09-.2.2s.09.2.2.2.2-.09.2-.2-.09-.2-.2-.2Z" />
		<path class="cls-2" d="M323.57,464.4c-.06,0-.1.04-.1.1s.04.1.1.1.1-.04.1-.1-.04-.1-.1-.1Z" />
		<path class="cls-2" d="M329.56,464.5s0,.02.02.02.02,0,.02-.02,0-.02-.02-.02-.02,0-.02.02Z" />
		<path class="cls-2"
			d="M132.32,469.34c-.61.66-1.24,1.29-1.9,1.91.25.38.67.63,1.16.63.76,0,1.38-.62,1.38-1.38,0-.49-.25-.91-.64-1.16Z" />
		<path class="cls-2"
			d="M137.57,469.14c-.75,0-1.36.61-1.36,1.36s.61,1.36,1.36,1.36,1.36-.61,1.36-1.36-.61-1.36-1.36-1.36Z" />
		<path class="cls-2"
			d="M143.57,469.17c-.74,0-1.33.6-1.33,1.33s.6,1.33,1.33,1.33,1.33-.6,1.33-1.33-.6-1.33-1.33-1.33Z" />
		<path class="cls-2" d="M149.57,469.2c-.72,0-1.3.58-1.3,1.3s.58,1.3,1.3,1.3,1.3-.58,1.3-1.3-.58-1.3-1.3-1.3Z" />
		<path class="cls-2"
			d="M155.57,469.24c-.7,0-1.26.57-1.26,1.26s.57,1.26,1.26,1.26,1.26-.57,1.26-1.26-.57-1.26-1.26-1.26Z" />
		<path class="cls-2"
			d="M161.57,469.27c-.68,0-1.23.55-1.23,1.23s.55,1.23,1.23,1.23,1.23-.55,1.23-1.23-.55-1.23-1.23-1.23Z" />
		<path class="cls-2" d="M167.57,469.3c-.66,0-1.2.54-1.2,1.2s.54,1.2,1.2,1.2,1.2-.54,1.2-1.2-.54-1.2-1.2-1.2Z" />
		<path class="cls-2"
			d="M173.57,469.34c-.64,0-1.16.52-1.16,1.16s.52,1.16,1.16,1.16,1.16-.52,1.16-1.16-.52-1.16-1.16-1.16Z" />
		<path class="cls-2"
			d="M179.57,469.39c-.62,0-1.11.5-1.11,1.11s.5,1.11,1.11,1.11,1.11-.5,1.11-1.11-.5-1.11-1.11-1.11Z" />
		<path class="cls-2"
			d="M185.57,469.42c-.6,0-1.08.48-1.08,1.08s.48,1.08,1.08,1.08,1.08-.48,1.08-1.08-.48-1.08-1.08-1.08Z" />
		<path class="cls-2"
			d="M191.57,469.45c-.58,0-1.05.47-1.05,1.05s.47,1.05,1.05,1.05,1.05-.47,1.05-1.05-.47-1.05-1.05-1.05Z" />
		<path class="cls-2" d="M197.57,469.5c-.55,0-1,.45-1,1s.45,1,1,1,1-.45,1-1-.45-1-1-1Z" />
		<path class="cls-2" d="M203.57,469.54c-.53,0-.97.43-.97.96s.43.97.97.97.96-.43.96-.97-.43-.96-.96-.96Z" />
		<path class="cls-2" d="M209.57,469.59c-.51,0-.92.41-.92.92s.41.92.92.92.92-.41.92-.92-.41-.92-.92-.92Z" />
		<path class="cls-2" d="M215.57,469.62c-.49,0-.88.39-.88.88s.39.88.88.88.88-.39.88-.88-.39-.88-.88-.88Z" />
		<path class="cls-2" d="M221.57,469.67c-.46,0-.83.37-.83.83s.37.83.83.83.83-.37.83-.83-.37-.83-.83-.83Z" />
		<path class="cls-2" d="M227.57,469.7c-.44,0-.8.36-.8.8s.36.8.8.8.8-.36.8-.8-.36-.8-.8-.8Z" />
		<path class="cls-2" d="M233.57,469.75c-.41,0-.75.34-.75.75s.34.75.75.75.75-.34.75-.75-.34-.75-.75-.75Z" />
		<path class="cls-2" d="M239.57,469.79c-.4,0-.72.32-.72.72s.32.72.72.72.72-.32.72-.72-.32-.72-.72-.72Z" />
		<path class="cls-2" d="M245.57,469.84c-.37,0-.67.3-.67.67s.3.67.67.67.67-.3.67-.67-.3-.67-.67-.67Z" />
		<path class="cls-2" d="M251.57,469.89c-.34,0-.62.28-.62.62s.28.62.62.62.62-.28.62-.62-.28-.62-.62-.62Z" />
		<path class="cls-2" d="M257.57,469.92c-.32,0-.58.26-.58.58s.26.58.58.58.58-.26.58-.58-.26-.58-.58-.58Z" />
		<circle class="cls-2" cx="263.57" cy="470.5" r=".53" />
		<path class="cls-2" d="M269.57,470.02c-.27,0-.48.22-.48.48s.22.48.48.48.48-.22.48-.48-.22-.48-.48-.48Z" />
		<path class="cls-2" d="M275.57,470.07c-.24,0-.43.19-.43.43s.19.43.43.43.43-.19.43-.43-.19-.43-.43-.43Z" />
		<path class="cls-2" d="M281.57,470.1c-.22,0-.4.18-.4.4s.18.4.4.4.4-.18.4-.4-.18-.4-.4-.4Z" />
		<path class="cls-2" d="M287.57,470.15c-.19,0-.35.16-.35.35s.16.35.35.35.35-.16.35-.35-.16-.35-.35-.35Z" />
		<path class="cls-2" d="M293.57,470.2c-.17,0-.3.13-.3.3s.13.3.3.3.3-.13.3-.3-.13-.3-.3-.3Z" />
		<path class="cls-2" d="M299.57,470.25c-.14,0-.25.11-.25.25s.11.25.25.25.25-.11.25-.25-.11-.25-.25-.25Z" />
		<path class="cls-2" d="M305.57,470.3c-.11,0-.2.09-.2.2s.09.2.2.2.2-.09.2-.2-.09-.2-.2-.2Z" />
		<path class="cls-2" d="M311.57,470.35c-.08,0-.15.07-.15.15s.07.15.15.15.15-.07.15-.15-.07-.15-.15-.15Z" />
		<path class="cls-2" d="M317.57,470.4c-.06,0-.1.04-.1.1s.04.1.1.1.1-.04.1-.1-.04-.1-.1-.1Z" />
		<path class="cls-2" d="M323.52,470.5s.02.05.05.05.05-.02.05-.05-.02-.05-.05-.05-.05.02-.05.05Z" />
		<path class="cls-2" d="M329.56,470.5s0,.02.02.02.02,0,.02-.02,0-.02-.02-.02-.02,0-.02.02Z" />
		<path class="cls-1"
			d="M80.95,423.86c-.51-.76-1.02-1.52-1.58-2.36-6.03,5.47-9.79,12.09-11.07,20.06,2.88,0,5.68,0,8.52,0,.12-.51.22-1.02.35-1.52.14-.55.3-1.08.47-1.61.85-2.64,2.09-5.08,3.7-7.3.64-.89,1.35-1.75,2.11-2.58.07-.08.12-.14.16-.21.11-.2.08-.38-.09-.64-.88-1.27-1.72-2.56-2.57-3.85Z" />
		<path class="cls-1"
			d="M82.69,410.49c-2.47.02-4.93,0-7.4,0-.1,0-.2,0-.29,0-.09,0-.17,0-.24,0,0,1.31,0,2.6,0,3.89s0,2.58,0,3.88c.13,0,.29.02.46.02,1.04,0,2.08.02,3.12,0,.27,0,.49.04.68.14.19.1.35.26.48.49.3.49.62.95.94,1.43,4.49,6.76,8.99,13.52,13.48,20.27.07.1.16.19.21.26.3-.3.59-.61.88-.91.29-.3.58-.58.89-.84.64-.53,1.37-.95,2.1-1.44-.08-.15-.17-.33-.27-.5-4.76-8.75-9.52-17.49-14.27-26.25-.19-.35-.4-.45-.78-.45Z" />
		<path class="cls-1"
			d="M91.45,422.42c1.75-.68,3.45-1.35,5.21-2.04-.11-1.17-.23-2.39-.35-3.6-.01-.12-.08-.26-.17-.35-.7-.81-1.4-1.63-2.12-2.42-.06-.06-.15-.11-.26-.14-.1-.03-.21-.04-.29-.01-.88.26-1.77.53-2.63.85-.97.36-1.92.78-2.94,1.2,1.21,2.23,2.39,4.39,3.55,6.52Z" />
		<path class="cls-1"
			d="M69.55,411.89c-.07.09-.12.26-.12.38-.02,1.09,0,2.18,0,3.27,0,.28,0,.49.02.65.02.16.05.28.12.37.13.19.4.28.93.47.86.31,1.72.61,2.56.91,0-1.2,0-2.39,0-3.57,0-1.19,0-2.38,0-3.59-1.12.34-2.28.68-3.42,1.05-.03,0-.05.03-.07.06Z" />
		<path class="cls-1"
			d="M58.78,446.31c0,1,0,2.01,0,2.99,11.37,0,22.79,0,34.27,0-.72-2-.73-4.04-.01-5.99-5.74,0-11.47,0-17.18,0-5.71,0-11.4,0-17.07,0,0,.99,0,1.99,0,3Z" />
		<path class="cls-1"
			d="M81.12,434.38c-.85,1.53-1.61,3.16-2.1,4.53-.39,1.09-.6,2.02-.55,2.58,4.73,0,9.46,0,14.2,0-2.64-3.96-5.29-7.96-7.96-11.96-.74.54-1.65,1.68-2.54,3.08-.36.56-.71,1.15-1.05,1.77Z" />
		<path class="cls-1"
			d="M107.17,421.84c-.56,5-1.11,10-1.7,15-.03.29-.04.53.05.71s.25.32.55.42c.16.05.31.12.45.21.15.09.28.19.42.29.64.48,1.25.99,1.91,1.51,3.69-4.4,7.4-8.81,11.1-13.22-2.37-2.24-9.55-5.3-12.71-5.44-.03.2-.05.36-.07.53Z" />
		<path class="cls-1"
			d="M125.98,419.57c-.8-.54-1.51-1.04-2.24-1.5-.51-.32-1.03-.64-1.55-.93-2.62-1.48-5.37-2.62-8.25-3.42-1.15-.32-2.33-.58-3.52-.8-.35-.06-.55,0-.72.33-.33.62-.71,1.22-1.06,1.83-.29.49-.7.96-.82,1.49-.17.77-.23,1.56-.31,2.36-.03.27-.05.54-.08.81,5,.87,9.49,2.82,13.57,5.81,1.68-2,3.32-3.96,5.01-5.97Z" />
		<path class="cls-1"
			d="M42.16,436.13c-.19.08-.45.28-.45.43-.05,1.1-.04,2.21-.06,3.42.67-.02,1.28.02,1.87-.07,1.44-.22,2.58.25,3.48,1.37.24.3.54.38.93.37,6.07-.01,12.15,0,18.22,0,.18,0,.37.05.57.08.75-4.89,2.36-9.26,4.75-13.18,1.86-3.05,4.2-5.83,6.98-8.36-.12.02-.23.05-.34.08-.1.03-.2.07-.3.12-8.57,3.78-17.15,7.56-25.72,11.35-3.31,1.46-6.63,2.92-9.94,4.39ZM57.05,434.01c.1-.15.21-.29.34-.41.76-.76,1.87-.95,2.8-.57.31.13.61.32.86.57,1.03,1.02,1.05,2.64.04,3.66-1.02,1.04-2.67,1.06-3.71.04-.26-.25-.45-.55-.58-.86-.32-.79-.24-1.7.24-2.43Z" />
		<path class="cls-1"
			d="M92.19,423.78c1.94,3.56,3.81,7.01,5.69,10.45.04-.01.07-.02.11-.04-.39-4.04-.78-8.09-1.18-12.25-1.58.63-3.07,1.22-4.62,1.84Z" />
		<path class="cls-1"
			d="M96.29,440.8c-.76.77-1.33,1.65-1.7,2.59-.19.47-.33.96-.42,1.45-.23,1.23-.17,2.51.2,3.71.36,1.21,1.02,2.34,1.98,3.3,3.05,3.04,8,3.03,11.05-.03,3.03-3.04,3.02-8.01-.02-11.06-3.05-3.05-8.04-3.04-11.09.04ZM103.78,448.25c-.66.68-1.61.94-2.5.77-.53-.1-1.04-.35-1.44-.76-.4-.4-.65-.9-.75-1.42-.07-.35-.07-.7,0-1.05.1-.52.35-1.02.75-1.43.4-.41.9-.67,1.42-.78.69-.14,1.42-.02,2.04.37.15.1.3.21.44.35.28.27.48.58.63.91.42,1,.23,2.2-.57,3.03Z" />
		<path class="cls-1"
			d="M97.87,416.89c.54,5.74,1.09,11.49,1.64,17.23.1,1,.2,1.99.28,2.9.69,0,1.37,0,2.05,0,.68,0,1.36,0,2.05,0,0,.01,0,0,0,0s.01-.04.01-.06c.76-6.75,1.52-13.5,2.27-20.25.02-.19-.03-.4-.11-.58-.6-1.26-1.22-2.5-1.81-3.76-.13-.28-.29-.4-.61-.39-1.29.02-2.58.02-3.87,0-.08,0-.14,0-.2.02-.17.04-.27.15-.34.37-.21.59-.42,1.18-.63,1.78-.21.59-.43,1.18-.63,1.78-.1.31-.15.66-.12.98Z" />
		<path class="cls-1"
			d="M120.95,443.74c-.17-.07-.34-.13-.51-.17-.35-.08-.71-.09-1.05-.03-.52.09-1.03.33-1.45.73-.14.13-.26.27-.36.43-.21.31-.35.65-.42,1.01-.18.89.07,1.87.75,2.55,1.05,1.06,2.82,1.08,3.91.03.14-.13.26-.28.37-.43.32-.46.48-.98.49-1.51.01-.71-.25-1.42-.8-1.98-.27-.28-.58-.49-.92-.64Z" />
		<path class="cls-1"
			d="M103.92,455.57c-.71,0-1.39,0-2.08,0-.68,0-1.36,0-2.04,0-.63,6.59-1.27,13.26-1.91,19.86,2.79,0,5.5,0,8.26,0-.37-3.32-.75-6.65-1.12-9.96-.37-3.32-.74-6.62-1.11-9.9Z" />
		<path class="cls-1"
			d="M120.97,467.05c-4.09,3-8.58,4.93-13.57,5.81.07.38.11.76.14,1.14.02.19.03.38.05.57.09.94.24,1.87.86,2.69.46.61.82,1.31,1.17,1.99.21.41.45.48.88.4,4.42-.79,8.57-2.33,12.42-4.63.51-.31,1.02-.63,1.52-.97.51-.34,1.02-.68,1.55-1.02-.85-1.02-1.69-2.01-2.52-3-.83-.99-1.66-1.98-2.5-2.97Z" />
		<path class="cls-1"
			d="M130.31,448.26c1.07,1.09,2.86,1.09,3.95.02,1.09-1.07,1.09-2.85.02-3.95-.27-.27-.58-.47-.91-.61-.5-.2-1.06-.26-1.59-.16-.18.03-.35.08-.52.15-.34.13-.65.33-.93.6-.68.67-.94,1.62-.77,2.5.1.53.35,1.04.75,1.44Z" />
		<path class="cls-1"
			d="M134.83,461.21c-.33-.17-.65-.33-.97-.49-2.53-1.28-5.06-2.56-7.59-3.83-.39-.2-.68-.44-.6-.93.05-.29.21-.48.44-.56.23-.08.52-.05.83.11,3.07,1.55,6.14,3.1,9.2,4.65.13.07.26.12.43.19.62-1.29,1.16-2.59,1.61-3.9s.81-2.65,1.08-3.99c.54-2.69.73-5.46.54-8.29-.07-1.04-.19-2.08-.36-3.09-.09-.51-.18-1.01-.29-1.52-.22-1.01-.49-2-.81-2.98-.48-1.47-1.07-2.91-1.76-4.33-.2.09-.34.15-.47.22-1.71.86-3.41,1.72-5.12,2.59-1.38.7-2.75,1.4-4.13,2.09-.24.12-.47.14-.66.09-.2-.06-.36-.19-.46-.4-.14-.3-.09-.59.13-.83.07-.08.17-.15.28-.21.06-.03.12-.06.18-.09,2.99-1.51,5.99-3.02,8.98-4.54.17-.09.34-.19.54-.3-2.25-4.02-5.09-7.45-8.66-10.32-.77.91-1.5,1.77-2.22,2.63-2.9,3.46-5.8,6.91-8.71,10.37-2.08,2.48-4.17,4.96-6.26,7.43-.1.12-.16.22-.17.33-.01.11.02.23.1.37,1.71,3.08,1.71,6.17,0,9.26-.08.14-.12.26-.11.37s.06.22.17.34c2.34,2.77,4.67,5.54,7,8.32,2.14,2.54,4.27,5.09,6.41,7.63,1.24,1.48,2.49,2.95,3.78,4.49,1.79-1.45,3.4-3.03,4.84-4.75.72-.86,1.4-1.75,2.03-2.69.32-.47.63-.94.92-1.42.3-.48.59-.98.86-1.48-.35-.18-.69-.35-1.01-.52ZM129.25,443.23c.84-.84,1.94-1.26,3.04-1.26.55,0,1.1.1,1.62.31.26.1.51.24.75.39.24.16.46.34.67.55.85.85,1.28,1.95,1.28,3.05,0,1.1-.42,2.21-1.26,3.06-1.7,1.7-4.41,1.7-6.11,0-1.7-1.69-1.69-4.42.01-6.11ZM122.93,449.34c-1.69,1.7-4.39,1.68-6.1-.03-.42-.43-.74-.91-.96-1.43-.32-.77-.4-1.61-.24-2.42s.55-1.57,1.18-2.21c.85-.85,1.95-1.28,3.05-1.28.55,0,1.1.1,1.62.31.52.21,1.01.53,1.43.95,1.69,1.68,1.69,4.42,0,6.11Z" />
		<path class="cls-1"
			d="M107.83,471.22c.65-.08,1.46-.27,2.34-.53.59-.18,1.22-.39,1.85-.62,1.6-.59,3.28-1.34,4.71-2.09,1.43-.76,2.61-1.53,3.19-2.16-3.7-4.41-7.41-8.82-11.13-13.26-.16.15-.28.27-.41.37-.85.61-1.69,1.25-2.58,1.82-.3.19-.41.32-.37.68.44,3.77.85,7.53,1.28,11.3.17,1.51.34,3.03.51,4.54.18,0,.38-.01.6-.04Z" />
		<path class="cls-1"
			d="M81.4,461.56c-2.13-2.98-3.69-6.49-4.65-10.56-1.4,0-2.79,0-4.2,0-1.4,0-2.81,0-4.23,0,.02.16.04.34.07.52,1.02,5.81,3.34,10.89,6.89,15.27,1.18,1.46,2.51,2.85,3.96,4.16,2.04,1.84,4.24,3.39,6.59,4.68,2.35,1.29,4.84,2.31,7.47,3.09.09.03.17.04.24.05.15.01.28-.02.4-.1.06-.04.12-.1.18-.17.64-.78,1.32-1.52,1.97-2.29.09-.11.19-.25.2-.39.13-1.22.24-2.43.36-3.63-6.57-2.17-11.7-5.67-15.26-10.63Z" />
		<path class="cls-1"
			d="M66.73,450.91c-.29.01-.54.03-.79.03-5.96,0-11.92,0-17.88,0-.47,0-.85.09-1.14.46-.84,1.05-1.91,1.48-3.26,1.29-.63-.09-1.29-.01-1.96-.01,0,1.1.02,2.12,0,3.14,0,.09,0,.16.02.23.03.13.09.22.2.3.05.04.12.07.2.11,12.06,5.31,24.12,10.63,36.18,15.95.09.04.19.06.41.12-6.57-5.84-10.62-12.93-11.96-21.6ZM61.06,458.98c-.78.78-1.88.97-2.82.57-.31-.13-.61-.33-.87-.59-.38-.38-.61-.85-.71-1.34-.06-.33-.06-.67,0-.99.03-.16.08-.33.14-.48.13-.31.32-.6.57-.86.39-.38.86-.62,1.36-.72.83-.16,1.71.09,2.35.74,1.01,1.03,1,2.64-.02,3.66Z" />
		<path class="cls-1"
			d="M98.1,454.86s-.1-.06-.17-.09c-.81-.38-1.54-.85-2.18-1.42-.65-.57-1.21-1.23-1.69-1.99-.1-.16-.21-.27-.34-.33-.13-.06-.28-.09-.47-.09-4.56.01-9.13.01-13.69,0-.37,0-.73-.05-1.15-.08,1.84,9.99,10.16,17.52,18.39,19.63.02-.06.04-.13.04-.19.48-4.99.96-9.99,1.44-14.98.02-.24-.04-.36-.18-.46Z" />
		<path class="cls-1"
			d="M98.16,477.16c.38,1.07.76,2.16,1.18,3.23.04.11.28.2.43.2.87.02,1.74.02,2.61.01.55,0,1.23.17,1.62-.09.41-.27.56-.95.82-1.45.32-.64.63-1.28.93-1.91-1.27,0-2.53,0-3.79,0-1.26,0-2.52,0-3.8,0Z" />
		<path class="cls-1"
			d="M394.14,319.06c.33-.92.22-2.18-.29-3.24l-17.7-36.43c-.99,6.36-1.97,12.74-2.93,18.96-.65,4.22-1.3,8.44-1.95,12.66-.04.29-.09.58-.13.87l21.17,8.18c.78.3,1.5-.09,1.83-1Z" />
		<path class="cls-1"
			d="M360.27,348.58c-.05.05-.12.14-.2.23.14.14.28.29.42.43,4.68,4.77,9.24,9.65,14.07,14.25,3.9,3.71,8.45,6.55,13.54,8.42,2.84,1.19,5.67,1.68,8.48,1.68,8.78,0,17.42-4.7,25.89-7.15,2.96-1.11,5.91-2.28,8.89-3.33,12.61-4.43,25.3-8.66,37.83-13.3,9.23-3.42,16.15-9.83,19.92-18.9,8.67-20.82,16.97-41.8,25.34-62.75,2.18-4.98,2.93-11.38,1.84-15.54-1.53-5.79-4.56-10.99-8.42-15.5-6.33-7.1-12.89-14-19.42-20.92-10.58-11.21-21.29-22.31-31.79-33.59-5.87-6.3-12.6-9.11-20.12-9.11-2.84,0-5.79.4-8.84,1.16-12.38,3.09-24.77,6.11-37.16,9.15-9.09,2.24-18.26,4.16-27.24,6.79-9.2,2.7-16.37,8.46-22.14,15.98,2.22,1.77,4.89,3.91,7.35,5.87.49-.1.99-.15,1.5-.15.63,0,1.28.07,1.94.21,2.23.45,4.08,1.54,5.71,2.96.55.47,1.07.98,1.57,1.51,12.35,12.99,24.68,25.98,37.01,38.98,4.02,4.24,8.08,8.44,12.06,12.71.99,1.06,1.88,2.16,2.67,3.3,3.43,4.93,5.03,10.57,4.85,16.8-.03,1.09-.16,2.21-.38,3.31-.22,1.1-.53,2.18-.94,3.19-3.84,9.54-7.71,19.06-11.59,28.58s-7.78,19.04-11.68,28.55c-1.68,4.09-4.67,6.26-8.12,6.26-1.88,0-3.9-.65-5.91-1.97-.97-.64-1.87-1.39-2.72-2.2-.28-.27-.56-.54-.83-.82-3.33-3.44-6.61-6.92-9.88-10.42-.97,1.9-2.14,3.77-3.54,5.34ZM412.67,267.06c-.56-.5-1.09-1.02-1.61-1.56-16.21-16.91-32.31-33.92-48.4-50.95-1.02-1.08-1.96-2.28-2.76-3.54-.27-.42-.52-.85-.75-1.29-.17-.31-.32-.63-.45-.94-.13-.32-.25-.63-.34-.95-.29-.95-.41-1.9-.39-2.82.02-.62.1-1.22.25-1.8.66-2.62,2.63-4.83,5.65-5.87,3.57-1.23,7.3-2,10.97-2.91,9.62-2.39,19.24-4.77,28.87-7.11,4.76-1.16,9.51-2.35,14.28-3.51,4.76-1.16,9.53-2.29,14.31-3.33,1.6-.35,3.16-.52,4.68-.52,5.37,0,10.15,2.18,14.19,6.44,15.76,16.58,31.53,33.15,47.2,49.81.97,1.03,1.86,2.25,2.56,3.55.42.78.76,1.58,1.01,2.39.1.33.18.65.25.96s.12.63.16.93c.18,1.53-.02,2.92-.59,4.17-1.01,2.24-3.19,3.98-6.34,5.08-9.52,3.32-19.05,6.64-28.58,9.96-.32.11-.63.22-.95.32-4.85,1.65-9.68,3.39-14.51,5.1s-9.67,3.41-14.56,4.97c-2.06.66-4.09.95-6.09.95-4.37,0-8.58-1.42-12.58-3.6-.65-.35-1.29-.74-1.91-1.15-1.25-.82-2.45-1.76-3.57-2.76ZM394.18,356.57c.24-.68.5-1.36.76-2.03.79-2.02,1.67-4.02,2.5-6.03,3.6-8.76,7.22-17.52,10.82-26.29,3.61-8.76,7.21-17.53,10.79-26.3.45-1.1.94-2.16,1.48-3.18.53-1.02,1.11-1.99,1.73-2.91,3.71-5.56,8.92-9.51,15.64-11.85,2.49-.87,4.97-1.75,7.45-2.64,7.43-2.68,14.84-5.43,22.32-7.97,10.49-3.78,20.98-7.56,31.47-11.33.84-.3,1.68-.63,2.55-.78.52-.09,1.03-.14,1.51-.14,3.66,0,6.21,2.62,6.08,6.62-.01.34-.04.68-.09,1.03-.09.69-.25,1.37-.46,2.04-.1.33-.22.66-.35.97-2.07,5.17-4.14,10.35-6.22,15.52-4.15,10.35-8.3,20.69-12.48,31.02-2.09,5.17-4.2,10.33-6.31,15.48-.4.97-.83,1.9-1.31,2.79s-.99,1.75-1.55,2.58c-.83,1.23-1.75,2.38-2.75,3.45-.67.71-1.37,1.38-2.11,2.02-2.6,2.22-5.64,3.96-9.08,5.19-10.32,3.68-20.65,7.31-30.99,10.93-10.34,3.62-20.68,7.22-31.02,10.84-.37.13-.74.24-1.11.38-1.1.41-2.18.65-3.21.65-1.63,0-3.16-.58-4.52-1.97-2.26-2.32-2.56-5.15-1.53-8.08Z" />
		<path class="cls-1"
			d="M318.28,193.35c-6.91-6.13-14.73-9.88-23.73-11.38-2.28-.46-4.56-.67-6.82-.67-7.69,0-15.2,2.45-22.17,5.85-10.76,4.32-21.54,8.56-32.29,12.92-7.64,3.09-15.33,6.1-22.81,9.54-6.15,2.83-11.2,7.12-13.94,13.56-.78,1.83-1.37,3.79-1.68,5.75-3.54,22.44-7.03,44.88-10.48,67.34-2.1,12.84-.65,28.59,11.49,36.04,18.49,12.04,36.9,24.2,55.49,36.09,5.9,3.78,12.2,5.61,18.75,5.61,3.37,0,6.81-.49,10.3-1.45,15.68-4.33,31.34-8.77,47-13.18,5.42-1.52,10.85-3.01,16.23-4.63,5.32-1.6,9.96-4.37,13.67-8.82,1.62-1.82,2.91-4.19,3.89-6.47,0,0,0-.02,0-.02.37-.88.71-1.76,1.02-2.65.62-1.78,1.13-3.59,1.57-5.41.22-.91.42-1.83.61-2.75.75-3.68,1.27-7.4,1.85-11.11.37-2.37.74-4.73,1.1-7.1.96-6.22,1.91-12.44,2.87-18.66.96-6.22,1.92-12.44,2.89-18.66.8-5.11,1.61-10.21,2.44-15.32.23-1.44.38-2.85.43-4.21.1-2.73-.16-5.29-.76-7.72-1.52-6.06-5.2-11.2-10.78-15.63-1.64-1.3-3.27-2.59-4.91-3.89-2.13-1.69-4.26-3.39-6.4-5.09v.03s-2.21-1.78-5.13-4.11c-1.1-.88-2.2-1.75-3.31-2.64,0,0,0,0,.01,0-3.77-3.02-7.77-6.22-9.64-7.68-5.67-4.4-11.4-8.72-16.75-13.47ZM190.8,300.77c-.1-1.32-.03-2.66.12-3.99.05-.44.11-.88.18-1.32,3.27-21.24,6.71-42.44,9.81-63.7.41-2.81,1.2-5.3,2.38-7.47,1.18-2.17,2.75-4.04,4.7-5.61.65-.52,1.35-1.02,2.09-1.48.74-.46,1.52-.89,2.35-1.29,1.18-.57,2.36-1.12,3.55-1.65,3.58-1.61,7.21-3.1,10.85-4.57,6.95-2.81,13.9-5.6,20.85-8.38,6.96-2.78,13.91-5.56,20.87-8.35,2.38-.95,4.76-1.9,7.14-2.85,0,0,0,.01,0,.02.46-.19.92-.39,1.39-.57,1.39-.52,2.74-.77,4.01-.77,4.64,0,8.17,3.34,8.55,8.77.03.41.04.83.05,1.24,0,1.25-.1,2.51-.29,3.74-1.79,11.61-3.58,23.21-5.38,34.82s-3.6,23.21-5.4,34.81c-.53,3.41-1.97,6.96-4.1,10.18-1.42,2.15-3.13,4.14-5.08,5.85-.97.85-2.01,1.64-3.09,2.33-2.16,1.39-4.52,2.41-7.01,2.94-2.04.43-4.07.92-6.09,1.45-1.01.26-2.02.53-3.02.81-5.03,1.39-10.03,2.94-15.06,4.33-11.06,3.05-22.11,6.15-33.19,9.11-.92.25-1.82.36-2.68.36-4.62,0-8.09-3.43-8.49-8.76ZM348.03,342.42c-.13.89-.4,1.66-.75,2.32-.17.33-.37.63-.58.91-1.05,1.38-2.49,2.14-3.54,2.49-5,1.41-9.81,2.76-14.48,4.08-4.67,1.32-9.22,2.6-13.72,3.87-3,.84-5.97,1.68-8.95,2.52-4.83,1.36-9.64,2.77-14.46,4.15-2.41.69-4.82,1.37-7.24,2.02-2.42.66-4.84,1.29-7.28,1.89-2.35.58-4.69.87-7,.87-5.25,0-10.33-1.5-15-4.5-18.56-11.93-36.98-24.07-55.47-36.1-2.56-1.67-4.29-3.78-3.82-7.02.31-2.1,1.28-3.67,2.73-4.76.29-.22.6-.42.92-.6.65-.36,1.37-.65,2.14-.88,7.23-2.07,14.5-3.98,21.76-5.95,8.22-2.24,16.44-4.49,24.67-6.72,1.59-.43,3.17-.88,4.75-1.32,4.75-1.35,9.49-2.71,14.3-3.71,2-.41,3.99-.62,5.95-.62,5.29,0,10.37,1.51,15.06,4.49,9.33,5.94,18.64,11.91,27.95,17.88,9.31,5.98,18.61,11.96,27.92,17.92,2.53,1.62,4.64,3.48,4.15,6.8ZM360.41,235.4c.9.72,1.77,1.47,2.59,2.27,1.64,1.58,3.08,3.32,4.18,5.31.55.99,1.03,2.05,1.4,3.18.53,1.6.8,3.21.88,4.84.02.41.03.81.02,1.22-.01,1.22-.12,2.45-.31,3.68-3.43,22.17-6.85,44.35-10.37,66.51-.09.54-.2,1.08-.34,1.62-.41,1.61-1.05,3.21-1.86,4.62-1.59,2.79-4.11,4.3-6.89,4.3-1.27,0-2.59-.31-3.91-.96-2.93-1.44-5.63-3.38-8.38-5.17-14.67-9.54-29.3-19.14-43.98-28.65-4.77-3.09-7.7-7.46-9.86-13.8-1.2-3.37-1.52-7.9-.79-12.57,3.59-22.88,7.11-45.77,10.69-68.65.07-.42.14-.85.23-1.27.17-.85.39-1.69.66-2.51.14-.41.29-.81.46-1.2,1.68-3.92,4.72-6.01,8.07-6.01,2.06,0,4.24.79,6.29,2.42,8.43,6.67,16.82,13.39,25.23,20.09,8.67,6.91,17.35,13.8,25.99,20.74Z" />
		<path class="cls-1"
			d="M319.82,222.23c-.53-.88-1.25-1.43-1.9-1.44-10.64-.15-19.13,8.16-21.37,23.29-2.23,15.06,2.34,32.68,10.84,46.32.52.83,1.24,1.34,1.9,1.33.65-.01,1.13-.54,1.26-1.38l9.91-65.31c.13-.86-.11-1.93-.64-2.81Z" />
		<path class="cls-1"
			d="M329.5,226.26l-11.47,74.8c-.18,1.16.37,2.62,1.27,3.38,1.17.98,2.37,1.9,3.6,2.73,16.89,11.41,32.79,3.43,36.14-17.53,3.38-21.11-7.02-48.65-23.88-61.86-1.23-.96-2.46-1.82-3.68-2.58-.95-.59-1.8-.13-1.98,1.07Z" />
		<path class="cls-1"
			d="M437.78,342.24c.57.57,2.06.07,3.33-1.12l42.42-39.49c1.33-1.24,1.96-2.73,1.39-3.33l-18.51-19.64c-.58-.61-2.13-.08-3.46,1.19l-42.52,40.44c-1.28,1.22-1.84,2.67-1.27,3.25l18.61,18.7ZM433.49,326.85l8.88-22.33c.52-1.29,2.01-2.72,3.34-3.17l23.35-8c1.34-.46,1.99.23,1.46,1.54l-9.26,22.54c-.52,1.27-2.02,2.67-3.34,3.12l-22.97,7.79c-1.31.44-1.97-.22-1.46-1.48Z" />
		<path class="cls-1"
			d="M226.59,289.81c.25.82,1.03,1.17,2,.9.97-.27,1.94-1.12,2.48-2.17l35.5-68.74c.59-1.14.55-2.22-.09-2.73-6.19-4.88-15.5-5.85-26.3-1.91-10.53,3.85-20.52,11.66-28.17,21.08-.78.96-1.13,2.1-.89,2.89l15.45,50.66ZM226.22,236.96c3.65-3.26,7.7-5.77,11.72-7.17,4.06-1.42,7.87-1.63,11.01-.68.77.23.93,1.2.39,2.26l-14.25,27.79c-.42.82-1.17,1.49-1.93,1.73-.75.24-1.36-.01-1.56-.63l-6.5-20.59c-.24-.77.23-1.93,1.11-2.71Z" />
		<path class="cls-1"
			d="M436.42,205.13l-13.63-13.29c-.87-.84-2.48-1.29-3.6-1l-27.31,7.15c-1.19.31-1.47,1.28-.6,2.16l13.59,13.89c.89.91,2.59,1.38,3.79,1.04l27.35-7.79c1.12-.32,1.31-1.29.41-2.16Z" />
		<path class="cls-1"
			d="M448.16,258.34l32.11-10.76c1.32-.44,1.46-1.7.33-2.81l-28.87-28.15c-1.07-1.05-3.01-1.58-4.33-1.19l-32.09,9.44c-1.4.41-1.68,1.63-.61,2.73l28.84,29.49c1.14,1.16,3.2,1.72,4.61,1.25Z" />
		<path class="cls-1"
			d="M307.77,321.89c-.21-.55-.96-1.09-1.98-1.4l-40.99-12.61c-1.03-.32-2.19-.37-3.03-.14l-34.92,9.61c-.9.25-1.35.75-1.17,1.33l7.13,23.53c.18.6.97,1.17,2.07,1.5l43.58,13.03c1.08.32,2.28.35,3.15.07l33.79-10.91c.82-.26,1.19-.78.97-1.36l-8.59-22.63ZM295.06,348.61c-.39.12-.94.09-1.39-.09l-33.65-13.07c-.29-.11-.5-.27-.61-.44l-11.65-19.35c-.16-.26,0-.5.4-.61.4-.11.95-.07,1.41.11l33.12,12.92c.28.11.49.26.6.43l12.14,19.46c.17.27.02.53-.36.65Z" />
	</g>
</svg>